<svg width="150" height="43" viewBox="0 0 150 43" fill="none" xmlns="http://www.w3.org/2000/svg">
<rect x="1" y="1" width="148" height="41" rx="7" stroke="#F3DCBF" stroke-width="2"/>
<path d="M30.2842 16.9082L26.4609 28H24.1494L28.9658 15.2031H30.4424L30.2842 16.9082ZM33.4834 28L29.6514 16.9082L29.4844 15.2031H30.9697L35.8037 28H33.4834ZM33.2988 23.2539V25.0029H26.3379V23.2539H33.2988ZM40.9102 26.4883C41.2559 26.4883 41.5664 26.4209 41.8418 26.2861C42.123 26.1455 42.3486 25.9521 42.5186 25.7061C42.6943 25.46 42.791 25.1758 42.8086 24.8535H44.8037C44.792 25.4688 44.6104 26.0283 44.2588 26.5322C43.9072 27.0361 43.4414 27.4375 42.8613 27.7363C42.2812 28.0293 41.6396 28.1758 40.9365 28.1758C40.21 28.1758 39.5771 28.0527 39.0381 27.8066C38.499 27.5547 38.0508 27.209 37.6934 26.7695C37.3359 26.3301 37.0664 25.8232 36.8848 25.249C36.709 24.6748 36.6211 24.0596 36.6211 23.4033V23.0957C36.6211 22.4395 36.709 21.8242 36.8848 21.25C37.0664 20.6699 37.3359 20.1602 37.6934 19.7207C38.0508 19.2812 38.499 18.9385 39.0381 18.6924C39.5771 18.4404 40.207 18.3145 40.9277 18.3145C41.6895 18.3145 42.3574 18.4668 42.9316 18.7715C43.5059 19.0703 43.957 19.4893 44.2852 20.0283C44.6191 20.5615 44.792 21.1826 44.8037 21.8916H42.8086C42.791 21.54 42.7031 21.2236 42.5449 20.9424C42.3926 20.6553 42.1758 20.4268 41.8945 20.2568C41.6191 20.0869 41.2881 20.002 40.9014 20.002C40.4736 20.002 40.1191 20.0898 39.8379 20.2656C39.5566 20.4355 39.3369 20.6699 39.1787 20.9688C39.0205 21.2617 38.9062 21.5928 38.8359 21.9619C38.7715 22.3252 38.7393 22.7031 38.7393 23.0957V23.4033C38.7393 23.7959 38.7715 24.1768 38.8359 24.5459C38.9004 24.915 39.0117 25.2461 39.1699 25.5391C39.334 25.8262 39.5566 26.0576 39.8379 26.2334C40.1191 26.4033 40.4766 26.4883 40.9102 26.4883ZM50.3145 26.4883C50.6602 26.4883 50.9707 26.4209 51.2461 26.2861C51.5273 26.1455 51.7529 25.9521 51.9229 25.7061C52.0986 25.46 52.1953 25.1758 52.2129 24.8535H54.208C54.1963 25.4688 54.0146 26.0283 53.6631 26.5322C53.3115 27.0361 52.8457 27.4375 52.2656 27.7363C51.6855 28.0293 51.0439 28.1758 50.3408 28.1758C49.6143 28.1758 48.9814 28.0527 48.4424 27.8066C47.9033 27.5547 47.4551 27.209 47.0977 26.7695C46.7402 26.3301 46.4707 25.8232 46.2891 25.249C46.1133 24.6748 46.0254 24.0596 46.0254 23.4033V23.0957C46.0254 22.4395 46.1133 21.8242 46.2891 21.25C46.4707 20.6699 46.7402 20.1602 47.0977 19.7207C47.4551 19.2812 47.9033 18.9385 48.4424 18.6924C48.9814 18.4404 49.6113 18.3145 50.332 18.3145C51.0938 18.3145 51.7617 18.4668 52.3359 18.7715C52.9102 19.0703 53.3613 19.4893 53.6895 20.0283C54.0234 20.5615 54.1963 21.1826 54.208 21.8916H52.2129C52.1953 21.54 52.1074 21.2236 51.9492 20.9424C51.7969 20.6553 51.5801 20.4268 51.2988 20.2568C51.0234 20.0869 50.6924 20.002 50.3057 20.002C49.8779 20.002 49.5234 20.0898 49.2422 20.2656C48.9609 20.4355 48.7412 20.6699 48.583 20.9688C48.4248 21.2617 48.3105 21.5928 48.2402 21.9619C48.1758 22.3252 48.1436 22.7031 48.1436 23.0957V23.4033C48.1436 23.7959 48.1758 24.1768 48.2402 24.5459C48.3047 24.915 48.416 25.2461 48.5742 25.5391C48.7383 25.8262 48.9609 26.0576 49.2422 26.2334C49.5234 26.4033 49.8809 26.4883 50.3145 26.4883ZM60.0264 28.1758C59.3232 28.1758 58.6875 28.0615 58.1191 27.833C57.5566 27.5986 57.0762 27.2734 56.6777 26.8574C56.2852 26.4414 55.9834 25.9521 55.7725 25.3896C55.5615 24.8271 55.4561 24.2207 55.4561 23.5703V23.2188C55.4561 22.4746 55.5645 21.8008 55.7812 21.1973C55.998 20.5938 56.2998 20.0781 56.6865 19.6504C57.0732 19.2168 57.5303 18.8857 58.0576 18.6572C58.585 18.4287 59.1562 18.3145 59.7715 18.3145C60.4512 18.3145 61.0459 18.4287 61.5557 18.6572C62.0654 18.8857 62.4873 19.208 62.8213 19.624C63.1611 20.0342 63.4131 20.5234 63.5771 21.0918C63.7471 21.6602 63.832 22.2871 63.832 22.9727V23.8779H56.4844V22.3574H61.7402V22.1904C61.7285 21.8096 61.6523 21.4521 61.5117 21.1182C61.377 20.7842 61.1689 20.5146 60.8877 20.3096C60.6064 20.1045 60.2314 20.002 59.7627 20.002C59.4111 20.002 59.0977 20.0781 58.8223 20.2305C58.5527 20.377 58.3271 20.5908 58.1455 20.8721C57.9639 21.1533 57.8232 21.4932 57.7236 21.8916C57.6299 22.2842 57.583 22.7266 57.583 23.2188V23.5703C57.583 23.9863 57.6387 24.373 57.75 24.7305C57.8672 25.082 58.0371 25.3896 58.2598 25.6533C58.4824 25.917 58.752 26.125 59.0684 26.2773C59.3848 26.4238 59.7451 26.4971 60.1494 26.4971C60.6592 26.4971 61.1133 26.3945 61.5117 26.1895C61.9102 25.9844 62.2559 25.6943 62.5488 25.3193L63.665 26.4004C63.46 26.6992 63.1934 26.9863 62.8652 27.2617C62.5371 27.5312 62.1357 27.751 61.6611 27.9209C61.1924 28.0908 60.6475 28.1758 60.0264 28.1758ZM70.8193 25.4248C70.8193 25.2139 70.7666 25.0234 70.6611 24.8535C70.5557 24.6777 70.3535 24.5195 70.0547 24.3789C69.7617 24.2383 69.3281 24.1094 68.7539 23.9922C68.25 23.8809 67.7871 23.749 67.3652 23.5967C66.9492 23.4385 66.5918 23.248 66.293 23.0254C65.9941 22.8027 65.7627 22.5391 65.5986 22.2344C65.4346 21.9297 65.3525 21.5781 65.3525 21.1797C65.3525 20.793 65.4375 20.4268 65.6074 20.0811C65.7773 19.7354 66.0205 19.4307 66.3369 19.167C66.6533 18.9033 67.0371 18.6953 67.4883 18.543C67.9453 18.3906 68.4551 18.3145 69.0176 18.3145C69.8145 18.3145 70.4971 18.4492 71.0654 18.7188C71.6396 18.9824 72.0791 19.3428 72.3838 19.7998C72.6885 20.251 72.8408 20.7607 72.8408 21.3291H70.7227C70.7227 21.0771 70.6582 20.8428 70.5293 20.626C70.4062 20.4033 70.2188 20.2246 69.9668 20.0898C69.7148 19.9492 69.3984 19.8789 69.0176 19.8789C68.6543 19.8789 68.3525 19.9375 68.1123 20.0547C67.8779 20.166 67.7021 20.3125 67.585 20.4941C67.4736 20.6758 67.418 20.875 67.418 21.0918C67.418 21.25 67.4473 21.3936 67.5059 21.5225C67.5703 21.6455 67.6758 21.7598 67.8223 21.8652C67.9688 21.9648 68.168 22.0586 68.4199 22.1465C68.6777 22.2344 69 22.3193 69.3867 22.4014C70.1133 22.5537 70.7373 22.75 71.2588 22.9902C71.7861 23.2246 72.1904 23.5293 72.4717 23.9043C72.7529 24.2734 72.8936 24.7422 72.8936 25.3105C72.8936 25.7324 72.8027 26.1191 72.6211 26.4707C72.4453 26.8164 72.1875 27.1182 71.8477 27.376C71.5078 27.6279 71.1006 27.8242 70.626 27.9648C70.1572 28.1055 69.6299 28.1758 69.0439 28.1758C68.1826 28.1758 67.4531 28.0234 66.8555 27.7188C66.2578 27.4082 65.8037 27.0127 65.4932 26.5322C65.1885 26.0459 65.0361 25.542 65.0361 25.0205H67.084C67.1074 25.4131 67.2158 25.7266 67.4092 25.9609C67.6084 26.1895 67.8545 26.3564 68.1475 26.4619C68.4463 26.5615 68.7539 26.6113 69.0703 26.6113C69.4512 26.6113 69.7705 26.5615 70.0283 26.4619C70.2861 26.3564 70.4824 26.2158 70.6172 26.04C70.752 25.8584 70.8193 25.6533 70.8193 25.4248ZM80.083 25.4248C80.083 25.2139 80.0303 25.0234 79.9248 24.8535C79.8193 24.6777 79.6172 24.5195 79.3184 24.3789C79.0254 24.2383 78.5918 24.1094 78.0176 23.9922C77.5137 23.8809 77.0508 23.749 76.6289 23.5967C76.2129 23.4385 75.8555 23.248 75.5566 23.0254C75.2578 22.8027 75.0264 22.5391 74.8623 22.2344C74.6982 21.9297 74.6162 21.5781 74.6162 21.1797C74.6162 20.793 74.7012 20.4268 74.8711 20.0811C75.041 19.7354 75.2842 19.4307 75.6006 19.167C75.917 18.9033 76.3008 18.6953 76.752 18.543C77.209 18.3906 77.7188 18.3145 78.2812 18.3145C79.0781 18.3145 79.7607 18.4492 80.3291 18.7188C80.9033 18.9824 81.3428 19.3428 81.6475 19.7998C81.9521 20.251 82.1045 20.7607 82.1045 21.3291H79.9863C79.9863 21.0771 79.9219 20.8428 79.793 20.626C79.6699 20.4033 79.4824 20.2246 79.2305 20.0898C78.9785 19.9492 78.6621 19.8789 78.2812 19.8789C77.918 19.8789 77.6162 19.9375 77.376 20.0547C77.1416 20.166 76.9658 20.3125 76.8486 20.4941C76.7373 20.6758 76.6816 20.875 76.6816 21.0918C76.6816 21.25 76.7109 21.3936 76.7695 21.5225C76.834 21.6455 76.9395 21.7598 77.0859 21.8652C77.2324 21.9648 77.4316 22.0586 77.6836 22.1465C77.9414 22.2344 78.2637 22.3193 78.6504 22.4014C79.377 22.5537 80.001 22.75 80.5225 22.9902C81.0498 23.2246 81.4541 23.5293 81.7354 23.9043C82.0166 24.2734 82.1572 24.7422 82.1572 25.3105C82.1572 25.7324 82.0664 26.1191 81.8848 26.4707C81.709 26.8164 81.4512 27.1182 81.1113 27.376C80.7715 27.6279 80.3643 27.8242 79.8896 27.9648C79.4209 28.1055 78.8936 28.1758 78.3076 28.1758C77.4463 28.1758 76.7168 28.0234 76.1191 27.7188C75.5215 27.4082 75.0674 27.0127 74.7568 26.5322C74.4521 26.0459 74.2998 25.542 74.2998 25.0205H76.3477C76.3711 25.4131 76.4795 25.7266 76.6729 25.9609C76.8721 26.1895 77.1182 26.3564 77.4111 26.4619C77.71 26.5615 78.0176 26.6113 78.334 26.6113C78.7148 26.6113 79.0342 26.5615 79.292 26.4619C79.5498 26.3564 79.7461 26.2158 79.8809 26.04C80.0156 25.8584 80.083 25.6533 80.083 25.4248ZM97.1602 20.5469V22.2959H90.3662V20.5469H97.1602ZM90.9111 15.2031V28H88.7051V15.2031H90.9111ZM98.8564 15.2031V28H96.6592V15.2031H98.8564ZM105.466 28.1758C104.763 28.1758 104.127 28.0615 103.559 27.833C102.996 27.5986 102.516 27.2734 102.117 26.8574C101.725 26.4414 101.423 25.9521 101.212 25.3896C101.001 24.8271 100.896 24.2207 100.896 23.5703V23.2188C100.896 22.4746 101.004 21.8008 101.221 21.1973C101.438 20.5938 101.739 20.0781 102.126 19.6504C102.513 19.2168 102.97 18.8857 103.497 18.6572C104.024 18.4287 104.596 18.3145 105.211 18.3145C105.891 18.3145 106.485 18.4287 106.995 18.6572C107.505 18.8857 107.927 19.208 108.261 19.624C108.601 20.0342 108.853 20.5234 109.017 21.0918C109.187 21.6602 109.271 22.2871 109.271 22.9727V23.8779H101.924V22.3574H107.18V22.1904C107.168 21.8096 107.092 21.4521 106.951 21.1182C106.816 20.7842 106.608 20.5146 106.327 20.3096C106.046 20.1045 105.671 20.002 105.202 20.002C104.851 20.002 104.537 20.0781 104.262 20.2305C103.992 20.377 103.767 20.5908 103.585 20.8721C103.403 21.1533 103.263 21.4932 103.163 21.8916C103.069 22.2842 103.022 22.7266 103.022 23.2188V23.5703C103.022 23.9863 103.078 24.373 103.189 24.7305C103.307 25.082 103.477 25.3896 103.699 25.6533C103.922 25.917 104.191 26.125 104.508 26.2773C104.824 26.4238 105.185 26.4971 105.589 26.4971C106.099 26.4971 106.553 26.3945 106.951 26.1895C107.35 25.9844 107.695 25.6943 107.988 25.3193L109.104 26.4004C108.899 26.6992 108.633 26.9863 108.305 27.2617C107.977 27.5312 107.575 27.751 107.101 27.9209C106.632 28.0908 106.087 28.1758 105.466 28.1758ZM113.051 20.3008V28H110.933V18.4902H112.954L113.051 20.3008ZM115.96 18.4287L115.942 20.3975C115.813 20.374 115.673 20.3564 115.521 20.3447C115.374 20.333 115.228 20.3271 115.081 20.3271C114.718 20.3271 114.398 20.3799 114.123 20.4854C113.848 20.585 113.616 20.7314 113.429 20.9248C113.247 21.1123 113.106 21.3408 113.007 21.6104C112.907 21.8799 112.849 22.1816 112.831 22.5156L112.348 22.5508C112.348 21.9531 112.406 21.3994 112.523 20.8896C112.641 20.3799 112.816 19.9316 113.051 19.5449C113.291 19.1582 113.59 18.8564 113.947 18.6396C114.311 18.4229 114.729 18.3145 115.204 18.3145C115.333 18.3145 115.471 18.3262 115.617 18.3496C115.77 18.373 115.884 18.3994 115.96 18.4287ZM121.304 28.1758C120.601 28.1758 119.965 28.0615 119.396 27.833C118.834 27.5986 118.354 27.2734 117.955 26.8574C117.562 26.4414 117.261 25.9521 117.05 25.3896C116.839 24.8271 116.733 24.2207 116.733 23.5703V23.2188C116.733 22.4746 116.842 21.8008 117.059 21.1973C117.275 20.5938 117.577 20.0781 117.964 19.6504C118.351 19.2168 118.808 18.8857 119.335 18.6572C119.862 18.4287 120.434 18.3145 121.049 18.3145C121.729 18.3145 122.323 18.4287 122.833 18.6572C123.343 18.8857 123.765 19.208 124.099 19.624C124.438 20.0342 124.69 20.5234 124.854 21.0918C125.024 21.6602 125.109 22.2871 125.109 22.9727V23.8779H117.762V22.3574H123.018V22.1904C123.006 21.8096 122.93 21.4521 122.789 21.1182C122.654 20.7842 122.446 20.5146 122.165 20.3096C121.884 20.1045 121.509 20.002 121.04 20.002C120.688 20.002 120.375 20.0781 120.1 20.2305C119.83 20.377 119.604 20.5908 119.423 20.8721C119.241 21.1533 119.101 21.4932 119.001 21.8916C118.907 22.2842 118.86 22.7266 118.86 23.2188V23.5703C118.86 23.9863 118.916 24.373 119.027 24.7305C119.145 25.082 119.314 25.3896 119.537 25.6533C119.76 25.917 120.029 26.125 120.346 26.2773C120.662 26.4238 121.022 26.4971 121.427 26.4971C121.937 26.4971 122.391 26.3945 122.789 26.1895C123.188 25.9844 123.533 25.6943 123.826 25.3193L124.942 26.4004C124.737 26.6992 124.471 26.9863 124.143 27.2617C123.814 27.5312 123.413 27.751 122.938 27.9209C122.47 28.0908 121.925 28.1758 121.304 28.1758Z" fill="#25282B"/>
</svg>
