<svg width="164" height="102" viewBox="0 0 164 102" fill="none" xmlns="http://www.w3.org/2000/svg">
<g clip-path="url(#clip0_5_302)">
<path d="M40 38C30 41 30 33 26 32M54 44V36.26C54.075 35.3063 53.9462 34.3476 53.622 33.4476C53.2979 32.5476 52.7859 31.7268 52.12 31.04C58.4 30.34 65 27.96 65 17.04C64.9995 14.2477 63.9254 11.5624 62 9.54C62.9117 7.09701 62.8472 4.3967 61.82 2C61.82 2 59.46 1.3 54 4.96C49.416 3.71764 44.584 3.71764 40 4.96C34.54 1.3 32.18 2 32.18 2C31.1528 4.3967 31.0883 7.09701 32 9.54C30.0603 11.5774 28.985 14.2869 29 17.1C29 27.94 35.6 30.32 41.88 31.1C41.222 31.7799 40.7145 32.5908 40.3906 33.4798C40.0667 34.3689 39.9336 35.3161 40 36.26V44" stroke="#1E1E1E" stroke-width="4" stroke-linecap="round" stroke-linejoin="round"/>
</g>
<path d="M99 7.72175C99 6.21837 100.249 5 101.791 5H134.209C135.751 5 137 6.21837 137 7.72175V40.2783C137 41.7816 135.751 43 134.209 43H101.791C100.249 43 99 41.7816 99 40.2783V7.72175ZM110.74 36.8108V19.6514H105.037V36.8108H110.74ZM107.89 17.3073C109.878 17.3073 111.115 15.9915 111.115 14.3433C111.079 12.6594 109.88 11.3793 107.928 11.3793C105.975 11.3793 104.7 12.6617 104.7 14.3433C104.7 15.9915 105.937 17.3073 107.852 17.3073H107.89ZM119.546 36.8108V27.2276C119.546 26.7146 119.584 26.2016 119.736 25.8359C120.147 24.8123 121.085 23.7506 122.662 23.7506C124.726 23.7506 125.55 25.3229 125.55 27.6314V36.8108H131.252V26.9688C131.252 21.6962 128.441 19.2453 124.688 19.2453C121.662 19.2453 120.306 20.9078 119.546 22.0786V22.138H119.508C119.521 22.1182 119.533 22.0984 119.546 22.0786V19.6514H113.846C113.917 21.2616 113.846 36.8108 113.846 36.8108H119.546Z" fill="#25282B"/>
<path d="M2.048 96.112C1.83467 96.112 1.66933 96.0533 1.552 95.936C1.44533 95.808 1.392 95.6373 1.392 95.424V85.28C1.392 85.056 1.44533 84.8907 1.552 84.784C1.66933 84.6667 1.83467 84.608 2.048 84.608C2.26133 84.608 2.42133 84.6667 2.528 84.784C2.64533 84.8907 2.704 85.056 2.704 85.28V89.84H2.736L7.952 84.976C8.08 84.848 8.208 84.7573 8.336 84.704C8.464 84.64 8.60267 84.608 8.752 84.608C8.95467 84.608 9.09867 84.656 9.184 84.752C9.28 84.848 9.31733 84.9653 9.296 85.104C9.27467 85.2427 9.2 85.376 9.072 85.504L3.616 90.56L3.632 89.856L9.328 95.12C9.488 95.2693 9.57333 95.424 9.584 95.584C9.59467 95.7333 9.54667 95.8613 9.44 95.968C9.344 96.064 9.19467 96.112 8.992 96.112C8.832 96.112 8.69333 96.0747 8.576 96C8.46933 95.936 8.34667 95.8347 8.208 95.696L2.736 90.688H2.704V95.424C2.704 95.6373 2.65067 95.808 2.544 95.936C2.43733 96.0533 2.272 96.112 2.048 96.112ZM13.664 96.144C13.1307 96.144 12.6507 96.0427 12.224 95.84C11.808 95.6267 11.4773 95.3387 11.232 94.976C10.9867 94.6133 10.864 94.208 10.864 93.76C10.864 93.184 11.008 92.7307 11.296 92.4C11.5947 92.0693 12.08 91.8347 12.752 91.696C13.4347 91.5573 14.3627 91.488 15.536 91.488H16.256V92.336H15.552C14.688 92.336 14.0053 92.3787 13.504 92.464C13.0133 92.5387 12.6667 92.672 12.464 92.864C12.272 93.056 12.176 93.328 12.176 93.68C12.176 94.1173 12.3253 94.4747 12.624 94.752C12.9333 95.0293 13.3493 95.168 13.872 95.168C14.2987 95.168 14.672 95.0667 14.992 94.864C15.3227 94.6613 15.5787 94.384 15.76 94.032C15.952 93.68 16.048 93.2747 16.048 92.816V90.992C16.048 90.3307 15.9147 89.856 15.648 89.568C15.3813 89.2693 14.944 89.12 14.336 89.12C13.9627 89.12 13.5893 89.168 13.216 89.264C12.8427 89.36 12.448 89.5147 12.032 89.728C11.8827 89.8027 11.7547 89.8293 11.648 89.808C11.5413 89.776 11.456 89.7173 11.392 89.632C11.328 89.5467 11.2907 89.4507 11.28 89.344C11.2693 89.2267 11.2907 89.1147 11.344 89.008C11.408 88.9013 11.504 88.816 11.632 88.752C12.1013 88.5173 12.5653 88.3467 13.024 88.24C13.4827 88.1333 13.92 88.08 14.336 88.08C15.008 88.08 15.5627 88.192 16 88.416C16.4373 88.6293 16.7627 88.96 16.976 89.408C17.1893 89.8453 17.296 90.4107 17.296 91.104V95.44C17.296 95.6533 17.2427 95.8187 17.136 95.936C17.04 96.0533 16.896 96.112 16.704 96.112C16.5013 96.112 16.3467 96.0533 16.24 95.936C16.1333 95.8187 16.08 95.6533 16.08 95.44V94.192H16.224C16.1387 94.5973 15.9733 94.944 15.728 95.232C15.4933 95.52 15.2 95.744 14.848 95.904C14.496 96.064 14.1013 96.144 13.664 96.144ZM22.0684 96.144C21.3004 96.144 20.7137 95.9093 20.3084 95.44C19.903 94.9707 19.7004 94.2987 19.7004 93.424V85.264C19.7004 85.0507 19.7537 84.8907 19.8604 84.784C19.967 84.6667 20.127 84.608 20.3404 84.608C20.543 84.608 20.703 84.6667 20.8204 84.784C20.9377 84.8907 20.9964 85.0507 20.9964 85.264V93.328C20.9964 93.904 21.1084 94.336 21.3324 94.624C21.567 94.9013 21.9084 95.04 22.3564 95.04C22.4524 95.04 22.5377 95.0347 22.6124 95.024C22.687 95.0133 22.7617 95.008 22.8364 95.008C22.9537 94.9973 23.0337 95.024 23.0764 95.088C23.1297 95.152 23.1564 95.28 23.1564 95.472C23.1564 95.664 23.1137 95.808 23.0284 95.904C22.943 96 22.8044 96.064 22.6124 96.096C22.527 96.1067 22.4364 96.1173 22.3404 96.128C22.2444 96.1387 22.1537 96.144 22.0684 96.144ZM25.0748 96.08C24.8614 96.08 24.7014 96.0213 24.5948 95.904C24.4881 95.776 24.4348 95.6 24.4348 95.376V88.832C24.4348 88.608 24.4881 88.4373 24.5948 88.32C24.7014 88.2027 24.8614 88.144 25.0748 88.144C25.2774 88.144 25.4374 88.2027 25.5548 88.32C25.6721 88.4373 25.7308 88.608 25.7308 88.832V95.376C25.7308 95.6 25.6721 95.776 25.5548 95.904C25.4481 96.0213 25.2881 96.08 25.0748 96.08ZM25.0748 86.352C24.8081 86.352 24.6001 86.2827 24.4508 86.144C24.3014 85.9947 24.2268 85.7973 24.2268 85.552C24.2268 85.296 24.3014 85.104 24.4508 84.976C24.6001 84.8373 24.8081 84.768 25.0748 84.768C25.3521 84.768 25.5601 84.8373 25.6988 84.976C25.8481 85.104 25.9228 85.296 25.9228 85.552C25.9228 85.7973 25.8481 85.9947 25.6988 86.144C25.5601 86.2827 25.3521 86.352 25.0748 86.352ZM36.1025 96.144C35.6012 96.144 35.1105 96.1013 34.6305 96.016C34.1505 95.9307 33.7025 95.808 33.2865 95.648C32.8812 95.488 32.5132 95.2853 32.1825 95.04C32.0545 94.944 31.9638 94.8373 31.9105 94.72C31.8678 94.592 31.8572 94.4693 31.8785 94.352C31.9105 94.224 31.9638 94.1173 32.0385 94.032C32.1238 93.9467 32.2252 93.8987 32.3425 93.888C32.4598 93.8773 32.5878 93.9147 32.7265 94C33.2065 94.3413 33.7185 94.592 34.2625 94.752C34.8065 94.9013 35.4198 94.976 36.1025 94.976C37.0625 94.976 37.7718 94.8 38.2305 94.448C38.6998 94.0853 38.9345 93.6107 38.9345 93.024C38.9345 92.544 38.7638 92.1707 38.4225 91.904C38.0918 91.6267 37.5318 91.408 36.7425 91.248L35.0785 90.912C34.0758 90.6987 33.3238 90.352 32.8225 89.872C32.3318 89.3813 32.0865 88.7307 32.0865 87.92C32.0865 87.4187 32.1878 86.9653 32.3905 86.56C32.5932 86.144 32.8758 85.792 33.2385 85.504C33.6012 85.2053 34.0332 84.976 34.5345 84.816C35.0358 84.656 35.5905 84.576 36.1985 84.576C36.8705 84.576 37.4945 84.672 38.0705 84.864C38.6572 85.0453 39.1852 85.3227 39.6545 85.696C39.7718 85.792 39.8518 85.904 39.8945 86.032C39.9372 86.1493 39.9425 86.2667 39.9105 86.384C39.8785 86.4907 39.8198 86.5813 39.7345 86.656C39.6598 86.7307 39.5585 86.7733 39.4305 86.784C39.3132 86.7947 39.1798 86.752 39.0305 86.656C38.6038 86.336 38.1612 86.1067 37.7025 85.968C37.2438 85.8187 36.7372 85.744 36.1825 85.744C35.6172 85.744 35.1265 85.8293 34.7105 86C34.3052 86.1707 33.9852 86.4213 33.7505 86.752C33.5265 87.072 33.4145 87.4453 33.4145 87.872C33.4145 88.384 33.5692 88.7893 33.8785 89.088C34.1985 89.3867 34.7158 89.6053 35.4305 89.744L37.0945 90.096C38.1718 90.32 38.9665 90.6613 39.4785 91.12C40.0012 91.568 40.2625 92.1813 40.2625 92.96C40.2625 93.4293 40.1665 93.8613 39.9745 94.256C39.7825 94.6507 39.5052 94.992 39.1425 95.28C38.7798 95.5573 38.3425 95.7707 37.8305 95.92C37.3185 96.0693 36.7425 96.144 36.1025 96.144ZM45.4183 96.144C44.6396 96.144 43.9676 95.9733 43.4023 95.632C42.8369 95.2907 42.3996 94.816 42.0903 94.208C41.7916 93.5893 41.6423 92.8747 41.6423 92.064C41.6423 91.4453 41.7276 90.8907 41.8983 90.4C42.0689 89.9093 42.3196 89.4933 42.6503 89.152C42.9809 88.8 43.3756 88.5333 43.8343 88.352C44.3036 88.1707 44.8316 88.08 45.4183 88.08C45.8023 88.08 46.2023 88.1387 46.6183 88.256C47.0343 88.3733 47.4129 88.576 47.7543 88.864C47.8609 88.9387 47.9303 89.0293 47.9623 89.136C47.9943 89.2427 47.9943 89.3493 47.9623 89.456C47.9303 89.552 47.8769 89.6373 47.8023 89.712C47.7276 89.776 47.6316 89.8133 47.5143 89.824C47.4076 89.8347 47.2956 89.7973 47.1783 89.712C46.9009 89.4987 46.6183 89.3493 46.3303 89.264C46.0423 89.1787 45.7649 89.136 45.4983 89.136C45.0823 89.136 44.7196 89.2053 44.4103 89.344C44.1009 89.472 43.8396 89.6587 43.6263 89.904C43.4129 90.1493 43.2476 90.4533 43.1303 90.816C43.0236 91.1787 42.9703 91.6 42.9703 92.08C42.9703 93.008 43.1889 93.744 43.6263 94.288C44.0636 94.8213 44.6876 95.088 45.4983 95.088C45.7649 95.088 46.0369 95.0453 46.3143 94.96C46.6023 94.8747 46.8903 94.7253 47.1783 94.512C47.2956 94.4267 47.4076 94.3893 47.5143 94.4C47.6209 94.4107 47.7116 94.4533 47.7863 94.528C47.8609 94.592 47.9089 94.6773 47.9303 94.784C47.9623 94.8907 47.9623 94.9973 47.9303 95.104C47.8983 95.2 47.8289 95.2853 47.7223 95.36C47.3809 95.6373 47.0076 95.84 46.6023 95.968C46.1969 96.0853 45.8023 96.144 45.4183 96.144ZM50.1685 96.112C49.9552 96.112 49.7952 96.0533 49.6885 95.936C49.5818 95.8187 49.5285 95.6533 49.5285 95.44V85.264C49.5285 85.0507 49.5818 84.8907 49.6885 84.784C49.7952 84.6667 49.9552 84.608 50.1685 84.608C50.3712 84.608 50.5312 84.6667 50.6485 84.784C50.7658 84.8907 50.8245 85.0507 50.8245 85.264V89.952H50.6165C50.8405 89.3333 51.2032 88.8693 51.7045 88.56C52.2165 88.24 52.8032 88.08 53.4645 88.08C54.0832 88.08 54.5952 88.192 55.0005 88.416C55.4165 88.64 55.7258 88.9813 55.9285 89.44C56.1312 89.888 56.2325 90.4587 56.2325 91.152V95.44C56.2325 95.6533 56.1738 95.8187 56.0565 95.936C55.9498 96.0533 55.7952 96.112 55.5925 96.112C55.3792 96.112 55.2138 96.0533 55.0965 95.936C54.9898 95.8187 54.9365 95.6533 54.9365 95.44V91.232C54.9365 90.5067 54.7925 89.9787 54.5045 89.648C54.2272 89.3067 53.7792 89.136 53.1605 89.136C52.4458 89.136 51.8752 89.36 51.4485 89.808C51.0325 90.2453 50.8245 90.832 50.8245 91.568V95.44C50.8245 95.888 50.6058 96.112 50.1685 96.112ZM61.3743 96.144C60.7449 96.144 60.2223 96.032 59.8063 95.808C59.4009 95.5733 59.0916 95.2267 58.8783 94.768C58.6756 94.3093 58.5743 93.7387 58.5743 93.056V88.768C58.5743 88.544 58.6276 88.3787 58.7343 88.272C58.8516 88.1653 59.0116 88.112 59.2143 88.112C59.4276 88.112 59.5876 88.1653 59.6943 88.272C59.8116 88.3787 59.8703 88.544 59.8703 88.768V93.04C59.8703 93.7227 60.0089 94.2347 60.2863 94.576C60.5743 94.9067 61.0223 95.072 61.6302 95.072C62.2916 95.072 62.8303 94.848 63.2463 94.4C63.6623 93.952 63.8703 93.3653 63.8703 92.64V88.768C63.8703 88.544 63.9236 88.3787 64.0303 88.272C64.1476 88.1653 64.3129 88.112 64.5263 88.112C64.7289 88.112 64.8836 88.1653 64.9903 88.272C65.1076 88.3787 65.1663 88.544 65.1663 88.768V95.44C65.1663 95.888 64.9583 96.112 64.5423 96.112C64.3396 96.112 64.1796 96.0533 64.0623 95.936C63.9556 95.8187 63.9023 95.6533 63.9023 95.44V93.984L64.1103 94.208C63.8969 94.8373 63.5449 95.3173 63.0543 95.648C62.5743 95.9787 62.0143 96.144 61.3743 96.144ZM70.887 96.144C70.1083 96.144 69.4363 95.9733 68.871 95.632C68.3057 95.2907 67.8683 94.816 67.559 94.208C67.2603 93.5893 67.111 92.8747 67.111 92.064C67.111 91.4453 67.1963 90.8907 67.367 90.4C67.5377 89.9093 67.7883 89.4933 68.119 89.152C68.4497 88.8 68.8443 88.5333 69.303 88.352C69.7723 88.1707 70.3003 88.08 70.887 88.08C71.271 88.08 71.671 88.1387 72.087 88.256C72.503 88.3733 72.8817 88.576 73.223 88.864C73.3297 88.9387 73.399 89.0293 73.431 89.136C73.463 89.2427 73.463 89.3493 73.431 89.456C73.399 89.552 73.3457 89.6373 73.271 89.712C73.1963 89.776 73.1003 89.8133 72.983 89.824C72.8763 89.8347 72.7643 89.7973 72.647 89.712C72.3697 89.4987 72.087 89.3493 71.799 89.264C71.511 89.1787 71.2337 89.136 70.967 89.136C70.551 89.136 70.1883 89.2053 69.879 89.344C69.5697 89.472 69.3083 89.6587 69.095 89.904C68.8817 90.1493 68.7163 90.4533 68.599 90.816C68.4923 91.1787 68.439 91.6 68.439 92.08C68.439 93.008 68.6577 93.744 69.095 94.288C69.5323 94.8213 70.1563 95.088 70.967 95.088C71.2337 95.088 71.5057 95.0453 71.783 94.96C72.071 94.8747 72.359 94.7253 72.647 94.512C72.7643 94.4267 72.8763 94.3893 72.983 94.4C73.0897 94.4107 73.1803 94.4533 73.255 94.528C73.3297 94.592 73.3777 94.6773 73.399 94.784C73.431 94.8907 73.431 94.9973 73.399 95.104C73.367 95.2 73.2977 95.2853 73.191 95.36C72.8497 95.6373 72.4763 95.84 72.071 95.968C71.6657 96.0853 71.271 96.144 70.887 96.144ZM75.6373 96.112C75.4239 96.112 75.2639 96.0533 75.1573 95.936C75.0506 95.8187 74.9973 95.6533 74.9973 95.44V85.264C74.9973 85.0507 75.0506 84.8907 75.1573 84.784C75.2639 84.6667 75.4239 84.608 75.6373 84.608C75.8399 84.608 75.9999 84.6667 76.1173 84.784C76.2346 84.8907 76.2933 85.0507 76.2933 85.264V89.952H76.0853C76.3093 89.3333 76.6719 88.8693 77.1733 88.56C77.6853 88.24 78.2719 88.08 78.9333 88.08C79.5519 88.08 80.0639 88.192 80.4693 88.416C80.8853 88.64 81.1946 88.9813 81.3973 89.44C81.5999 89.888 81.7013 90.4587 81.7013 91.152V95.44C81.7013 95.6533 81.6426 95.8187 81.5253 95.936C81.4186 96.0533 81.2639 96.112 81.0613 96.112C80.8479 96.112 80.6826 96.0533 80.5653 95.936C80.4586 95.8187 80.4053 95.6533 80.4053 95.44V91.232C80.4053 90.5067 80.2613 89.9787 79.9733 89.648C79.6959 89.3067 79.2479 89.136 78.6293 89.136C77.9146 89.136 77.3439 89.36 76.9173 89.808C76.5013 90.2453 76.2933 90.832 76.2933 91.568V95.44C76.2933 95.888 76.0746 96.112 75.6373 96.112ZM84.731 96.112C84.5177 96.112 84.3577 96.0533 84.251 95.936C84.1443 95.8187 84.091 95.6533 84.091 95.44V85.264C84.091 85.0507 84.1443 84.8907 84.251 84.784C84.3577 84.6667 84.5177 84.608 84.731 84.608C84.9337 84.608 85.0937 84.6667 85.211 84.784C85.3283 84.8907 85.387 85.0507 85.387 85.264V89.952H85.179C85.403 89.3333 85.7657 88.8693 86.267 88.56C86.779 88.24 87.3657 88.08 88.027 88.08C88.6457 88.08 89.1577 88.192 89.563 88.416C89.979 88.64 90.2883 88.9813 90.491 89.44C90.6937 89.888 90.795 90.4587 90.795 91.152V95.44C90.795 95.6533 90.7363 95.8187 90.619 95.936C90.5123 96.0533 90.3577 96.112 90.155 96.112C89.9417 96.112 89.7763 96.0533 89.659 95.936C89.5523 95.8187 89.499 95.6533 89.499 95.44V91.232C89.499 90.5067 89.355 89.9787 89.067 89.648C88.7897 89.3067 88.3417 89.136 87.723 89.136C87.0083 89.136 86.4377 89.36 86.011 89.808C85.595 90.2453 85.387 90.832 85.387 91.568V95.44C85.387 95.888 85.1683 96.112 84.731 96.112ZM95.6328 96.144C95.0994 96.144 94.6194 96.0427 94.1928 95.84C93.7768 95.6267 93.4461 95.3387 93.2008 94.976C92.9554 94.6133 92.8328 94.208 92.8328 93.76C92.8328 93.184 92.9768 92.7307 93.2648 92.4C93.5634 92.0693 94.0488 91.8347 94.7208 91.696C95.4034 91.5573 96.3314 91.488 97.5048 91.488H98.2248V92.336H97.5208C96.6568 92.336 95.9741 92.3787 95.4728 92.464C94.9821 92.5387 94.6354 92.672 94.4328 92.864C94.2408 93.056 94.1448 93.328 94.1448 93.68C94.1448 94.1173 94.2941 94.4747 94.5928 94.752C94.9021 95.0293 95.3181 95.168 95.8408 95.168C96.2674 95.168 96.6408 95.0667 96.9608 94.864C97.2914 94.6613 97.5474 94.384 97.7288 94.032C97.9208 93.68 98.0168 93.2747 98.0168 92.816V90.992C98.0168 90.3307 97.8834 89.856 97.6168 89.568C97.3501 89.2693 96.9128 89.12 96.3048 89.12C95.9314 89.12 95.5581 89.168 95.1848 89.264C94.8114 89.36 94.4168 89.5147 94.0008 89.728C93.8514 89.8027 93.7234 89.8293 93.6168 89.808C93.5101 89.776 93.4248 89.7173 93.3608 89.632C93.2968 89.5467 93.2594 89.4507 93.2488 89.344C93.2381 89.2267 93.2594 89.1147 93.3128 89.008C93.3768 88.9013 93.4728 88.816 93.6008 88.752C94.0701 88.5173 94.5341 88.3467 94.9928 88.24C95.4514 88.1333 95.8888 88.08 96.3048 88.08C96.9768 88.08 97.5314 88.192 97.9688 88.416C98.4061 88.6293 98.7314 88.96 98.9448 89.408C99.1581 89.8453 99.2648 90.4107 99.2648 91.104V95.44C99.2648 95.6533 99.2114 95.8187 99.1048 95.936C99.0088 96.0533 98.8648 96.112 98.6728 96.112C98.4701 96.112 98.3154 96.0533 98.2088 95.936C98.1021 95.8187 98.0488 95.6533 98.0488 95.44V94.192H98.1928C98.1074 94.5973 97.9421 94.944 97.6968 95.232C97.4621 95.52 97.1688 95.744 96.8168 95.904C96.4648 96.064 96.0701 96.144 95.6328 96.144ZM102.325 96.112C102.112 96.112 101.946 96.0533 101.829 95.936C101.722 95.8187 101.669 95.6533 101.669 95.44V88.768C101.669 88.5547 101.722 88.3947 101.829 88.288C101.936 88.1707 102.09 88.112 102.293 88.112C102.496 88.112 102.65 88.1707 102.757 88.288C102.874 88.3947 102.933 88.5547 102.933 88.768V90.064H102.773C102.944 89.4347 103.269 88.9493 103.749 88.608C104.229 88.2667 104.821 88.0853 105.525 88.064C105.685 88.0533 105.813 88.0907 105.909 88.176C106.005 88.2507 106.058 88.384 106.069 88.576C106.08 88.7573 106.037 88.9013 105.941 89.008C105.845 89.1147 105.696 89.1787 105.493 89.2L105.237 89.232C104.512 89.296 103.952 89.5307 103.557 89.936C103.173 90.3307 102.981 90.8747 102.981 91.568V95.44C102.981 95.6533 102.922 95.8187 102.805 95.936C102.698 96.0533 102.538 96.112 102.325 96.112ZM110.27 96.144C109.576 96.144 108.968 95.9787 108.446 95.648C107.934 95.3173 107.534 94.8533 107.246 94.256C106.968 93.648 106.83 92.9333 106.83 92.112C106.83 91.28 106.968 90.5653 107.246 89.968C107.534 89.36 107.934 88.896 108.446 88.576C108.968 88.2453 109.576 88.08 110.27 88.08C110.974 88.08 111.576 88.256 112.078 88.608C112.579 88.96 112.915 89.4347 113.086 90.032H112.91V85.264C112.91 85.0507 112.963 84.8907 113.07 84.784C113.187 84.6667 113.352 84.608 113.566 84.608C113.768 84.608 113.923 84.6667 114.03 84.784C114.147 84.8907 114.206 85.0507 114.206 85.264V95.44C114.206 95.6533 114.152 95.8187 114.046 95.936C113.939 96.0533 113.779 96.112 113.566 96.112C113.363 96.112 113.203 96.0533 113.086 95.936C112.979 95.8187 112.926 95.6533 112.926 95.44V93.92L113.102 94.144C112.931 94.752 112.59 95.2373 112.078 95.6C111.576 95.9627 110.974 96.144 110.27 96.144ZM110.542 95.104C111.022 95.104 111.443 94.9867 111.806 94.752C112.168 94.5173 112.446 94.176 112.638 93.728C112.84 93.28 112.942 92.7413 112.942 92.112C112.942 91.1413 112.723 90.4 112.286 89.888C111.859 89.376 111.278 89.12 110.542 89.12C110.051 89.12 109.624 89.2373 109.262 89.472C108.91 89.696 108.632 90.032 108.43 90.48C108.238 90.9173 108.142 91.4613 108.142 92.112C108.142 93.072 108.36 93.8133 108.798 94.336C109.235 94.848 109.816 95.104 110.542 95.104ZM119.758 96.144C119.15 96.144 118.638 96.0373 118.222 95.824C117.817 95.6 117.513 95.28 117.31 94.864C117.107 94.4373 117.006 93.92 117.006 93.312V89.232H115.934C115.753 89.232 115.614 89.1893 115.518 89.104C115.422 89.008 115.374 88.88 115.374 88.72C115.374 88.56 115.422 88.4373 115.518 88.352C115.614 88.2667 115.753 88.224 115.934 88.224H117.006V86.384C117.006 86.1707 117.065 86.0107 117.182 85.904C117.299 85.7867 117.459 85.728 117.662 85.728C117.865 85.728 118.019 85.7867 118.126 85.904C118.243 86.0107 118.302 86.1707 118.302 86.384V88.224H120.318C120.499 88.224 120.638 88.2667 120.734 88.352C120.83 88.4373 120.878 88.56 120.878 88.72C120.878 88.88 120.83 89.008 120.734 89.104C120.638 89.1893 120.499 89.232 120.318 89.232H118.302V93.184C118.302 93.792 118.43 94.256 118.686 94.576C118.942 94.8853 119.358 95.04 119.934 95.04C120.137 95.04 120.307 95.0187 120.446 94.976C120.595 94.9333 120.718 94.912 120.814 94.912C120.91 94.9013 120.99 94.9333 121.054 95.008C121.118 95.0827 121.15 95.2107 121.15 95.392C121.15 95.52 121.123 95.6373 121.07 95.744C121.027 95.8507 120.947 95.9253 120.83 95.968C120.702 96.0107 120.531 96.048 120.318 96.08C120.115 96.1227 119.929 96.144 119.758 96.144ZM127.205 96C126.97 96 126.794 95.9467 126.677 95.84C126.57 95.7227 126.517 95.568 126.517 95.376C126.517 95.2587 126.543 95.1467 126.597 95.04C126.661 94.9227 126.746 94.8053 126.853 94.688L130.437 90.848C130.981 90.2613 131.37 89.7227 131.605 89.232C131.85 88.7307 131.973 88.224 131.973 87.712C131.973 87.072 131.775 86.5867 131.381 86.256C130.997 85.9147 130.431 85.744 129.685 85.744C129.205 85.744 128.751 85.8187 128.325 85.968C127.898 86.1173 127.487 86.3467 127.093 86.656C126.954 86.7627 126.826 86.8107 126.709 86.8C126.602 86.7893 126.506 86.7467 126.421 86.672C126.335 86.5973 126.277 86.5013 126.245 86.384C126.213 86.2667 126.213 86.1493 126.245 86.032C126.287 85.9147 126.373 85.808 126.501 85.712C126.917 85.3707 127.418 85.0987 128.005 84.896C128.591 84.6827 129.189 84.576 129.797 84.576C130.554 84.576 131.194 84.6933 131.717 84.928C132.239 85.1627 132.634 85.5093 132.901 85.968C133.167 86.416 133.301 86.9653 133.301 87.616C133.301 88.064 133.226 88.5067 133.077 88.944C132.938 89.3707 132.719 89.808 132.421 90.256C132.133 90.704 131.754 91.168 131.285 91.648L127.877 95.248V94.88H133.269C133.471 94.88 133.621 94.928 133.717 95.024C133.823 95.1093 133.877 95.2427 133.877 95.424C133.877 95.616 133.823 95.76 133.717 95.856C133.621 95.952 133.471 96 133.269 96H127.205ZM139.534 96.144C138.244 96.144 137.262 95.648 136.59 94.656C135.918 93.664 135.582 92.2293 135.582 90.352C135.582 89.0933 135.732 88.0373 136.03 87.184C136.329 86.32 136.772 85.6693 137.358 85.232C137.956 84.7947 138.681 84.576 139.534 84.576C140.836 84.576 141.817 85.0667 142.478 86.048C143.15 87.0187 143.486 88.448 143.486 90.336C143.486 91.5947 143.337 92.656 143.038 93.52C142.74 94.384 142.297 95.04 141.71 95.488C141.124 95.9253 140.398 96.144 139.534 96.144ZM139.534 95.008C140.43 95.008 141.092 94.6293 141.518 93.872C141.956 93.104 142.174 91.9253 142.174 90.336C142.174 88.736 141.956 87.568 141.518 86.832C141.092 86.0853 140.43 85.712 139.534 85.712C138.649 85.712 137.988 86.0853 137.55 86.832C137.113 87.5787 136.894 88.7467 136.894 90.336C136.894 91.9253 137.113 93.104 137.55 93.872C137.988 94.6293 138.649 95.008 139.534 95.008ZM146.392 96C146.157 96 145.981 95.9467 145.864 95.84C145.757 95.7227 145.704 95.568 145.704 95.376C145.704 95.2587 145.731 95.1467 145.784 95.04C145.848 94.9227 145.933 94.8053 146.04 94.688L149.624 90.848C150.168 90.2613 150.557 89.7227 150.792 89.232C151.037 88.7307 151.16 88.224 151.16 87.712C151.16 87.072 150.963 86.5867 150.568 86.256C150.184 85.9147 149.619 85.744 148.872 85.744C148.392 85.744 147.939 85.8187 147.512 85.968C147.085 86.1173 146.675 86.3467 146.28 86.656C146.141 86.7627 146.013 86.8107 145.896 86.8C145.789 86.7893 145.693 86.7467 145.608 86.672C145.523 86.5973 145.464 86.5013 145.432 86.384C145.4 86.2667 145.4 86.1493 145.432 86.032C145.475 85.9147 145.56 85.808 145.688 85.712C146.104 85.3707 146.605 85.0987 147.192 84.896C147.779 84.6827 148.376 84.576 148.984 84.576C149.741 84.576 150.381 84.6933 150.904 84.928C151.427 85.1627 151.821 85.5093 152.088 85.968C152.355 86.416 152.488 86.9653 152.488 87.616C152.488 88.064 152.413 88.5067 152.264 88.944C152.125 89.3707 151.907 89.808 151.608 90.256C151.32 90.704 150.941 91.168 150.472 91.648L147.064 95.248V94.88H152.456C152.659 94.88 152.808 94.928 152.904 95.024C153.011 95.1093 153.064 95.2427 153.064 95.424C153.064 95.616 153.011 95.76 152.904 95.856C152.808 95.952 152.659 96 152.456 96H146.392ZM158.962 96.144C158.354 96.144 157.746 96.0533 157.138 95.872C156.541 95.6907 155.997 95.408 155.506 95.024C155.378 94.9387 155.293 94.8373 155.25 94.72C155.207 94.6027 155.202 94.4853 155.234 94.368C155.266 94.2507 155.325 94.1547 155.41 94.08C155.495 93.9947 155.597 93.9467 155.714 93.936C155.842 93.9253 155.975 93.968 156.114 94.064C156.551 94.3733 157.005 94.6027 157.474 94.752C157.943 94.9013 158.434 94.976 158.946 94.976C159.469 94.976 159.917 94.88 160.29 94.688C160.674 94.4853 160.962 94.208 161.154 93.856C161.357 93.4933 161.458 93.072 161.458 92.592C161.458 91.856 161.245 91.2533 160.818 90.784C160.391 90.3147 159.805 90.08 159.058 90.08C158.599 90.08 158.178 90.1653 157.794 90.336C157.41 90.5067 157.058 90.7787 156.738 91.152C156.663 91.2373 156.573 91.312 156.466 91.376C156.37 91.4293 156.258 91.456 156.13 91.456C155.949 91.456 155.805 91.408 155.698 91.312C155.602 91.2053 155.554 91.0667 155.554 90.896V85.328C155.554 85.1253 155.607 84.976 155.714 84.88C155.821 84.7733 155.97 84.72 156.162 84.72H161.602C161.805 84.72 161.954 84.768 162.05 84.864C162.157 84.96 162.21 85.0987 162.21 85.28C162.21 85.4613 162.157 85.6 162.05 85.696C161.954 85.792 161.805 85.84 161.602 85.84H156.85V90.336H156.498C156.775 89.888 157.159 89.5467 157.65 89.312C158.141 89.0667 158.69 88.944 159.298 88.944C160.013 88.944 160.626 89.0933 161.138 89.392C161.661 89.6907 162.061 90.112 162.338 90.656C162.626 91.1893 162.77 91.8133 162.77 92.528C162.77 93.232 162.615 93.856 162.306 94.4C161.997 94.944 161.559 95.3707 160.994 95.68C160.429 95.9893 159.751 96.144 158.962 96.144Z" fill="#828282"/>
<defs>
<clipPath id="clip0_5_302">
<rect width="48" height="48" fill="white" transform="translate(22)"/>
</clipPath>
</defs>
</svg>
