<svg width="117" height="43" viewBox="0 0 117 43" fill="none" xmlns="http://www.w3.org/2000/svg">
<rect x="1" y="1" width="115" height="41" rx="7" stroke="#F3DCBF" stroke-width="2"/>
<path d="M33.3164 26.251V28H26.8916V26.251H33.3164ZM27.5068 15.2031V28H25.3008V15.2031H27.5068ZM37.0781 18.4902V28H34.9512V18.4902H37.0781ZM34.8105 15.9941C34.8105 15.6719 34.916 15.4053 35.127 15.1943C35.3438 14.9775 35.6426 14.8691 36.0234 14.8691C36.3984 14.8691 36.6943 14.9775 36.9111 15.1943C37.1279 15.4053 37.2363 15.6719 37.2363 15.9941C37.2363 16.3105 37.1279 16.5742 36.9111 16.7852C36.6943 16.9961 36.3984 17.1016 36.0234 17.1016C35.6426 17.1016 35.3438 16.9961 35.127 16.7852C34.916 16.5742 34.8105 16.3105 34.8105 15.9941ZM41.499 20.5205V28H39.3809V18.4902H41.376L41.499 20.5205ZM41.1211 22.8936L40.4355 22.8848C40.4414 22.2109 40.5352 21.5928 40.7168 21.0303C40.9043 20.4678 41.1621 19.9844 41.4902 19.5801C41.8242 19.1758 42.2227 18.8652 42.6855 18.6484C43.1484 18.4258 43.6641 18.3145 44.2324 18.3145C44.6895 18.3145 45.1025 18.3789 45.4717 18.5078C45.8467 18.6309 46.166 18.833 46.4297 19.1143C46.6992 19.3955 46.9043 19.7617 47.0449 20.2129C47.1855 20.6582 47.2559 21.2061 47.2559 21.8564V28H45.1289V21.8477C45.1289 21.3906 45.0615 21.0303 44.9268 20.7666C44.7979 20.4971 44.6074 20.3066 44.3555 20.1953C44.1094 20.0781 43.8018 20.0195 43.4326 20.0195C43.0693 20.0195 42.7441 20.0957 42.457 20.248C42.1699 20.4004 41.9268 20.6084 41.7275 20.8721C41.5342 21.1357 41.3848 21.4404 41.2793 21.7861C41.1738 22.1318 41.1211 22.501 41.1211 22.8936ZM51.5537 14.5V28H49.4268V14.5H51.5537ZM57.46 18.4902L53.3203 23.0781L51.0527 25.3984L50.499 23.6055L52.2129 21.4873L54.9023 18.4902H57.46ZM55.3594 28L52.2744 23.5352L53.6104 22.0498L57.8115 28H55.3594ZM62.8213 28.1758C62.1182 28.1758 61.4824 28.0615 60.9141 27.833C60.3516 27.5986 59.8711 27.2734 59.4727 26.8574C59.0801 26.4414 58.7783 25.9521 58.5674 25.3896C58.3564 24.8271 58.251 24.2207 58.251 23.5703V23.2188C58.251 22.4746 58.3594 21.8008 58.5762 21.1973C58.793 20.5938 59.0947 20.0781 59.4814 19.6504C59.8682 19.2168 60.3252 18.8857 60.8525 18.6572C61.3799 18.4287 61.9512 18.3145 62.5664 18.3145C63.2461 18.3145 63.8408 18.4287 64.3506 18.6572C64.8604 18.8857 65.2822 19.208 65.6162 19.624C65.9561 20.0342 66.208 20.5234 66.3721 21.0918C66.542 21.6602 66.627 22.2871 66.627 22.9727V23.8779H59.2793V22.3574H64.5352V22.1904C64.5234 21.8096 64.4473 21.4521 64.3066 21.1182C64.1719 20.7842 63.9639 20.5146 63.6826 20.3096C63.4014 20.1045 63.0264 20.002 62.5576 20.002C62.2061 20.002 61.8926 20.0781 61.6172 20.2305C61.3477 20.377 61.1221 20.5908 60.9404 20.8721C60.7588 21.1533 60.6182 21.4932 60.5186 21.8916C60.4248 22.2842 60.3779 22.7266 60.3779 23.2188V23.5703C60.3779 23.9863 60.4336 24.373 60.5449 24.7305C60.6621 25.082 60.832 25.3896 61.0547 25.6533C61.2773 25.917 61.5469 26.125 61.8633 26.2773C62.1797 26.4238 62.54 26.4971 62.9443 26.4971C63.4541 26.4971 63.9082 26.3945 64.3066 26.1895C64.7051 25.9844 65.0508 25.6943 65.3438 25.3193L66.46 26.4004C66.2549 26.6992 65.9883 26.9863 65.6602 27.2617C65.332 27.5312 64.9307 27.751 64.4561 27.9209C63.9873 28.0908 63.4424 28.1758 62.8213 28.1758ZM74.0801 26.0312V14.5H76.207V28H74.2822L74.0801 26.0312ZM67.8926 23.3506V23.166C67.8926 22.4453 67.9775 21.7891 68.1475 21.1973C68.3174 20.5996 68.5635 20.0869 68.8857 19.6592C69.208 19.2256 69.6006 18.8945 70.0635 18.666C70.5264 18.4316 71.0479 18.3145 71.6279 18.3145C72.2021 18.3145 72.7061 18.4258 73.1396 18.6484C73.5732 18.8711 73.9424 19.1904 74.2471 19.6064C74.5518 20.0166 74.7949 20.5088 74.9766 21.083C75.1582 21.6514 75.2871 22.2842 75.3633 22.9814V23.5703C75.2871 24.25 75.1582 24.8711 74.9766 25.4336C74.7949 25.9961 74.5518 26.4824 74.2471 26.8926C73.9424 27.3027 73.5703 27.6191 73.1309 27.8418C72.6973 28.0645 72.1904 28.1758 71.6104 28.1758C71.0361 28.1758 70.5176 28.0557 70.0547 27.8154C69.5977 27.5752 69.208 27.2383 68.8857 26.8047C68.5635 26.3711 68.3174 25.8613 68.1475 25.2754C67.9775 24.6836 67.8926 24.042 67.8926 23.3506ZM70.0107 23.166V23.3506C70.0107 23.7842 70.0488 24.1885 70.125 24.5635C70.207 24.9385 70.333 25.2695 70.5029 25.5566C70.6729 25.8379 70.8926 26.0605 71.1621 26.2246C71.4375 26.3828 71.7656 26.4619 72.1465 26.4619C72.627 26.4619 73.0225 26.3564 73.333 26.1455C73.6436 25.9346 73.8867 25.6504 74.0625 25.293C74.2441 24.9297 74.3672 24.5254 74.4316 24.0801V22.4893C74.3965 22.1436 74.3232 21.8213 74.2119 21.5225C74.1064 21.2236 73.9629 20.9629 73.7812 20.7402C73.5996 20.5117 73.374 20.3359 73.1045 20.2129C72.8408 20.084 72.5273 20.0195 72.1641 20.0195C71.7773 20.0195 71.4492 20.1016 71.1797 20.2656C70.9102 20.4297 70.6875 20.6553 70.5117 20.9424C70.3418 21.2295 70.2158 21.5635 70.1338 21.9443C70.0518 22.3252 70.0107 22.7324 70.0107 23.166ZM80.9883 15.2031V28H78.7822V15.2031H80.9883ZM85.6201 20.5205V28H83.502V18.4902H85.4971L85.6201 20.5205ZM85.2422 22.8936L84.5566 22.8848C84.5625 22.2109 84.6562 21.5928 84.8379 21.0303C85.0254 20.4678 85.2832 19.9844 85.6113 19.5801C85.9453 19.1758 86.3438 18.8652 86.8066 18.6484C87.2695 18.4258 87.7852 18.3145 88.3535 18.3145C88.8105 18.3145 89.2236 18.3789 89.5928 18.5078C89.9678 18.6309 90.2871 18.833 90.5508 19.1143C90.8203 19.3955 91.0254 19.7617 91.166 20.2129C91.3066 20.6582 91.377 21.2061 91.377 21.8564V28H89.25V21.8477C89.25 21.3906 89.1826 21.0303 89.0479 20.7666C88.9189 20.4971 88.7285 20.3066 88.4766 20.1953C88.2305 20.0781 87.9229 20.0195 87.5537 20.0195C87.1904 20.0195 86.8652 20.0957 86.5781 20.248C86.291 20.4004 86.0479 20.6084 85.8486 20.8721C85.6553 21.1357 85.5059 21.4404 85.4004 21.7861C85.2949 22.1318 85.2422 22.501 85.2422 22.8936Z" fill="#25282B"/>
</svg>
