<svg width="162" height="13" viewBox="0 0 162 13" fill="none" xmlns="http://www.w3.org/2000/svg">
<path d="M1.048 12.112C0.834667 12.112 0.669333 12.0533 0.552 11.936C0.445333 11.808 0.392 11.6373 0.392 11.424V1.28C0.392 1.056 0.445333 0.890666 0.552 0.783999C0.669333 0.666666 0.834667 0.608 1.048 0.608C1.26133 0.608 1.42133 0.666666 1.528 0.783999C1.64533 0.890666 1.704 1.056 1.704 1.28V5.84H1.736L6.952 0.976C7.08 0.848 7.208 0.757333 7.336 0.704C7.464 0.64 7.60267 0.608 7.752 0.608C7.95467 0.608 8.09867 0.656 8.184 0.752C8.28 0.848 8.31733 0.965333 8.296 1.104C8.27467 1.24267 8.2 1.376 8.072 1.504L2.616 6.56L2.632 5.856L8.328 11.12C8.488 11.2693 8.57333 11.424 8.584 11.584C8.59467 11.7333 8.54667 11.8613 8.44 11.968C8.344 12.064 8.19467 12.112 7.992 12.112C7.832 12.112 7.69333 12.0747 7.576 12C7.46933 11.936 7.34667 11.8347 7.208 11.696L1.736 6.688H1.704V11.424C1.704 11.6373 1.65067 11.808 1.544 11.936C1.43733 12.0533 1.272 12.112 1.048 12.112ZM12.664 12.144C12.1307 12.144 11.6507 12.0427 11.224 11.84C10.808 11.6267 10.4773 11.3387 10.232 10.976C9.98667 10.6133 9.864 10.208 9.864 9.76C9.864 9.184 10.008 8.73067 10.296 8.4C10.5947 8.06933 11.08 7.83467 11.752 7.696C12.4347 7.55733 13.3627 7.488 14.536 7.488H15.256V8.336H14.552C13.688 8.336 13.0053 8.37867 12.504 8.464C12.0133 8.53867 11.6667 8.672 11.464 8.864C11.272 9.056 11.176 9.328 11.176 9.68C11.176 10.1173 11.3253 10.4747 11.624 10.752C11.9333 11.0293 12.3493 11.168 12.872 11.168C13.2987 11.168 13.672 11.0667 13.992 10.864C14.3227 10.6613 14.5787 10.384 14.76 10.032C14.952 9.68 15.048 9.27467 15.048 8.816V6.992C15.048 6.33067 14.9147 5.856 14.648 5.568C14.3813 5.26933 13.944 5.12 13.336 5.12C12.9627 5.12 12.5893 5.168 12.216 5.264C11.8427 5.36 11.448 5.51467 11.032 5.728C10.8827 5.80267 10.7547 5.82933 10.648 5.808C10.5413 5.776 10.456 5.71733 10.392 5.632C10.328 5.54667 10.2907 5.45067 10.28 5.344C10.2693 5.22667 10.2907 5.11467 10.344 5.008C10.408 4.90133 10.504 4.816 10.632 4.752C11.1013 4.51733 11.5653 4.34667 12.024 4.24C12.4827 4.13333 12.92 4.08 13.336 4.08C14.008 4.08 14.5627 4.192 15 4.416C15.4373 4.62933 15.7627 4.96 15.976 5.408C16.1893 5.84533 16.296 6.41067 16.296 7.104V11.44C16.296 11.6533 16.2427 11.8187 16.136 11.936C16.04 12.0533 15.896 12.112 15.704 12.112C15.5013 12.112 15.3467 12.0533 15.24 11.936C15.1333 11.8187 15.08 11.6533 15.08 11.44V10.192H15.224C15.1387 10.5973 14.9733 10.944 14.728 11.232C14.4933 11.52 14.2 11.744 13.848 11.904C13.496 12.064 13.1013 12.144 12.664 12.144ZM21.0684 12.144C20.3004 12.144 19.7137 11.9093 19.3084 11.44C18.903 10.9707 18.7004 10.2987 18.7004 9.424V1.264C18.7004 1.05067 18.7537 0.890666 18.8604 0.783999C18.967 0.666666 19.127 0.608 19.3404 0.608C19.543 0.608 19.703 0.666666 19.8204 0.783999C19.9377 0.890666 19.9964 1.05067 19.9964 1.264V9.328C19.9964 9.904 20.1084 10.336 20.3324 10.624C20.567 10.9013 20.9084 11.04 21.3564 11.04C21.4524 11.04 21.5377 11.0347 21.6124 11.024C21.687 11.0133 21.7617 11.008 21.8364 11.008C21.9537 10.9973 22.0337 11.024 22.0764 11.088C22.1297 11.152 22.1564 11.28 22.1564 11.472C22.1564 11.664 22.1137 11.808 22.0284 11.904C21.943 12 21.8044 12.064 21.6124 12.096C21.527 12.1067 21.4364 12.1173 21.3404 12.128C21.2444 12.1387 21.1537 12.144 21.0684 12.144ZM24.0748 12.08C23.8614 12.08 23.7014 12.0213 23.5948 11.904C23.4881 11.776 23.4348 11.6 23.4348 11.376V4.832C23.4348 4.608 23.4881 4.43733 23.5948 4.32C23.7014 4.20267 23.8614 4.144 24.0748 4.144C24.2774 4.144 24.4374 4.20267 24.5548 4.32C24.6721 4.43733 24.7308 4.608 24.7308 4.832V11.376C24.7308 11.6 24.6721 11.776 24.5548 11.904C24.4481 12.0213 24.2881 12.08 24.0748 12.08ZM24.0748 2.352C23.8081 2.352 23.6001 2.28267 23.4508 2.144C23.3014 1.99467 23.2268 1.79733 23.2268 1.552C23.2268 1.296 23.3014 1.104 23.4508 0.976C23.6001 0.837333 23.8081 0.768 24.0748 0.768C24.3521 0.768 24.5601 0.837333 24.6988 0.976C24.8481 1.104 24.9228 1.296 24.9228 1.552C24.9228 1.79733 24.8481 1.99467 24.6988 2.144C24.5601 2.28267 24.3521 2.352 24.0748 2.352ZM35.1025 12.144C34.6012 12.144 34.1105 12.1013 33.6305 12.016C33.1505 11.9307 32.7025 11.808 32.2865 11.648C31.8812 11.488 31.5132 11.2853 31.1825 11.04C31.0545 10.944 30.9638 10.8373 30.9105 10.72C30.8678 10.592 30.8572 10.4693 30.8785 10.352C30.9105 10.224 30.9638 10.1173 31.0385 10.032C31.1238 9.94667 31.2252 9.89867 31.3425 9.888C31.4598 9.87733 31.5878 9.91467 31.7265 10C32.2065 10.3413 32.7185 10.592 33.2625 10.752C33.8065 10.9013 34.4198 10.976 35.1025 10.976C36.0625 10.976 36.7718 10.8 37.2305 10.448C37.6998 10.0853 37.9345 9.61067 37.9345 9.024C37.9345 8.544 37.7638 8.17067 37.4225 7.904C37.0918 7.62667 36.5318 7.408 35.7425 7.248L34.0785 6.912C33.0758 6.69867 32.3238 6.352 31.8225 5.872C31.3318 5.38133 31.0865 4.73067 31.0865 3.92C31.0865 3.41867 31.1878 2.96533 31.3905 2.56C31.5932 2.144 31.8758 1.792 32.2385 1.504C32.6012 1.20533 33.0332 0.976 33.5345 0.815999C34.0358 0.655999 34.5905 0.575999 35.1985 0.575999C35.8705 0.575999 36.4945 0.671999 37.0705 0.863999C37.6572 1.04533 38.1852 1.32267 38.6545 1.696C38.7718 1.792 38.8518 1.904 38.8945 2.032C38.9372 2.14933 38.9425 2.26667 38.9105 2.384C38.8785 2.49067 38.8198 2.58133 38.7345 2.656C38.6598 2.73067 38.5585 2.77333 38.4305 2.784C38.3132 2.79467 38.1798 2.752 38.0305 2.656C37.6038 2.336 37.1612 2.10667 36.7025 1.968C36.2438 1.81867 35.7372 1.744 35.1825 1.744C34.6172 1.744 34.1265 1.82933 33.7105 2C33.3052 2.17067 32.9852 2.42133 32.7505 2.752C32.5265 3.072 32.4145 3.44533 32.4145 3.872C32.4145 4.384 32.5692 4.78933 32.8785 5.088C33.1985 5.38667 33.7158 5.60533 34.4305 5.744L36.0945 6.096C37.1718 6.32 37.9665 6.66133 38.4785 7.12C39.0012 7.568 39.2625 8.18133 39.2625 8.96C39.2625 9.42933 39.1665 9.86133 38.9745 10.256C38.7825 10.6507 38.5052 10.992 38.1425 11.28C37.7798 11.5573 37.3425 11.7707 36.8305 11.92C36.3185 12.0693 35.7425 12.144 35.1025 12.144ZM44.4183 12.144C43.6396 12.144 42.9676 11.9733 42.4023 11.632C41.8369 11.2907 41.3996 10.816 41.0903 10.208C40.7916 9.58933 40.6423 8.87467 40.6423 8.064C40.6423 7.44533 40.7276 6.89067 40.8983 6.4C41.0689 5.90933 41.3196 5.49333 41.6503 5.152C41.9809 4.8 42.3756 4.53333 42.8343 4.352C43.3036 4.17067 43.8316 4.08 44.4183 4.08C44.8023 4.08 45.2023 4.13867 45.6183 4.256C46.0343 4.37333 46.4129 4.576 46.7543 4.864C46.8609 4.93867 46.9303 5.02933 46.9623 5.136C46.9943 5.24267 46.9943 5.34933 46.9623 5.456C46.9303 5.552 46.8769 5.63733 46.8023 5.712C46.7276 5.776 46.6316 5.81333 46.5143 5.824C46.4076 5.83467 46.2956 5.79733 46.1783 5.712C45.9009 5.49867 45.6183 5.34933 45.3303 5.264C45.0423 5.17867 44.7649 5.136 44.4983 5.136C44.0823 5.136 43.7196 5.20533 43.4103 5.344C43.1009 5.472 42.8396 5.65867 42.6263 5.904C42.4129 6.14933 42.2476 6.45333 42.1303 6.816C42.0236 7.17867 41.9703 7.6 41.9703 8.08C41.9703 9.008 42.1889 9.744 42.6263 10.288C43.0636 10.8213 43.6876 11.088 44.4983 11.088C44.7649 11.088 45.0369 11.0453 45.3143 10.96C45.6023 10.8747 45.8903 10.7253 46.1783 10.512C46.2956 10.4267 46.4076 10.3893 46.5143 10.4C46.6209 10.4107 46.7116 10.4533 46.7863 10.528C46.8609 10.592 46.9089 10.6773 46.9303 10.784C46.9623 10.8907 46.9623 10.9973 46.9303 11.104C46.8983 11.2 46.8289 11.2853 46.7223 11.36C46.3809 11.6373 46.0076 11.84 45.6023 11.968C45.1969 12.0853 44.8023 12.144 44.4183 12.144ZM49.1685 12.112C48.9552 12.112 48.7952 12.0533 48.6885 11.936C48.5818 11.8187 48.5285 11.6533 48.5285 11.44V1.264C48.5285 1.05067 48.5818 0.890666 48.6885 0.783999C48.7952 0.666666 48.9552 0.608 49.1685 0.608C49.3712 0.608 49.5312 0.666666 49.6485 0.783999C49.7658 0.890666 49.8245 1.05067 49.8245 1.264V5.952H49.6165C49.8405 5.33333 50.2032 4.86933 50.7045 4.56C51.2165 4.24 51.8032 4.08 52.4645 4.08C53.0832 4.08 53.5952 4.192 54.0005 4.416C54.4165 4.64 54.7258 4.98133 54.9285 5.44C55.1312 5.888 55.2325 6.45867 55.2325 7.152V11.44C55.2325 11.6533 55.1738 11.8187 55.0565 11.936C54.9498 12.0533 54.7952 12.112 54.5925 12.112C54.3792 12.112 54.2138 12.0533 54.0965 11.936C53.9898 11.8187 53.9365 11.6533 53.9365 11.44V7.232C53.9365 6.50667 53.7925 5.97867 53.5045 5.648C53.2272 5.30667 52.7792 5.136 52.1605 5.136C51.4458 5.136 50.8752 5.36 50.4485 5.808C50.0325 6.24533 49.8245 6.832 49.8245 7.568V11.44C49.8245 11.888 49.6058 12.112 49.1685 12.112ZM60.3743 12.144C59.7449 12.144 59.2223 12.032 58.8063 11.808C58.4009 11.5733 58.0916 11.2267 57.8783 10.768C57.6756 10.3093 57.5743 9.73867 57.5743 9.056V4.768C57.5743 4.544 57.6276 4.37867 57.7343 4.272C57.8516 4.16533 58.0116 4.112 58.2143 4.112C58.4276 4.112 58.5876 4.16533 58.6943 4.272C58.8116 4.37867 58.8703 4.544 58.8703 4.768V9.04C58.8703 9.72267 59.0089 10.2347 59.2863 10.576C59.5743 10.9067 60.0223 11.072 60.6302 11.072C61.2916 11.072 61.8303 10.848 62.2463 10.4C62.6623 9.952 62.8703 9.36533 62.8703 8.64V4.768C62.8703 4.544 62.9236 4.37867 63.0303 4.272C63.1476 4.16533 63.3129 4.112 63.5263 4.112C63.7289 4.112 63.8836 4.16533 63.9903 4.272C64.1076 4.37867 64.1663 4.544 64.1663 4.768V11.44C64.1663 11.888 63.9583 12.112 63.5423 12.112C63.3396 12.112 63.1796 12.0533 63.0623 11.936C62.9556 11.8187 62.9023 11.6533 62.9023 11.44V9.984L63.1103 10.208C62.8969 10.8373 62.5449 11.3173 62.0543 11.648C61.5743 11.9787 61.0143 12.144 60.3743 12.144ZM69.887 12.144C69.1083 12.144 68.4363 11.9733 67.871 11.632C67.3057 11.2907 66.8683 10.816 66.559 10.208C66.2603 9.58933 66.111 8.87467 66.111 8.064C66.111 7.44533 66.1963 6.89067 66.367 6.4C66.5377 5.90933 66.7883 5.49333 67.119 5.152C67.4497 4.8 67.8443 4.53333 68.303 4.352C68.7723 4.17067 69.3003 4.08 69.887 4.08C70.271 4.08 70.671 4.13867 71.087 4.256C71.503 4.37333 71.8817 4.576 72.223 4.864C72.3297 4.93867 72.399 5.02933 72.431 5.136C72.463 5.24267 72.463 5.34933 72.431 5.456C72.399 5.552 72.3457 5.63733 72.271 5.712C72.1963 5.776 72.1003 5.81333 71.983 5.824C71.8763 5.83467 71.7643 5.79733 71.647 5.712C71.3697 5.49867 71.087 5.34933 70.799 5.264C70.511 5.17867 70.2337 5.136 69.967 5.136C69.551 5.136 69.1883 5.20533 68.879 5.344C68.5697 5.472 68.3083 5.65867 68.095 5.904C67.8817 6.14933 67.7163 6.45333 67.599 6.816C67.4923 7.17867 67.439 7.6 67.439 8.08C67.439 9.008 67.6577 9.744 68.095 10.288C68.5323 10.8213 69.1563 11.088 69.967 11.088C70.2337 11.088 70.5057 11.0453 70.783 10.96C71.071 10.8747 71.359 10.7253 71.647 10.512C71.7643 10.4267 71.8763 10.3893 71.983 10.4C72.0897 10.4107 72.1803 10.4533 72.255 10.528C72.3297 10.592 72.3777 10.6773 72.399 10.784C72.431 10.8907 72.431 10.9973 72.399 11.104C72.367 11.2 72.2977 11.2853 72.191 11.36C71.8497 11.6373 71.4763 11.84 71.071 11.968C70.6657 12.0853 70.271 12.144 69.887 12.144ZM74.6373 12.112C74.4239 12.112 74.2639 12.0533 74.1573 11.936C74.0506 11.8187 73.9973 11.6533 73.9973 11.44V1.264C73.9973 1.05067 74.0506 0.890666 74.1573 0.783999C74.2639 0.666666 74.4239 0.608 74.6373 0.608C74.8399 0.608 74.9999 0.666666 75.1173 0.783999C75.2346 0.890666 75.2933 1.05067 75.2933 1.264V5.952H75.0853C75.3093 5.33333 75.6719 4.86933 76.1733 4.56C76.6853 4.24 77.2719 4.08 77.9333 4.08C78.5519 4.08 79.0639 4.192 79.4693 4.416C79.8853 4.64 80.1946 4.98133 80.3973 5.44C80.5999 5.888 80.7013 6.45867 80.7013 7.152V11.44C80.7013 11.6533 80.6426 11.8187 80.5253 11.936C80.4186 12.0533 80.2639 12.112 80.0613 12.112C79.8479 12.112 79.6826 12.0533 79.5653 11.936C79.4586 11.8187 79.4053 11.6533 79.4053 11.44V7.232C79.4053 6.50667 79.2613 5.97867 78.9733 5.648C78.6959 5.30667 78.2479 5.136 77.6293 5.136C76.9146 5.136 76.3439 5.36 75.9173 5.808C75.5013 6.24533 75.2933 6.832 75.2933 7.568V11.44C75.2933 11.888 75.0746 12.112 74.6373 12.112ZM83.731 12.112C83.5177 12.112 83.3577 12.0533 83.251 11.936C83.1443 11.8187 83.091 11.6533 83.091 11.44V1.264C83.091 1.05067 83.1443 0.890666 83.251 0.783999C83.3577 0.666666 83.5177 0.608 83.731 0.608C83.9337 0.608 84.0937 0.666666 84.211 0.783999C84.3283 0.890666 84.387 1.05067 84.387 1.264V5.952H84.179C84.403 5.33333 84.7657 4.86933 85.267 4.56C85.779 4.24 86.3657 4.08 87.027 4.08C87.6457 4.08 88.1577 4.192 88.563 4.416C88.979 4.64 89.2883 4.98133 89.491 5.44C89.6937 5.888 89.795 6.45867 89.795 7.152V11.44C89.795 11.6533 89.7363 11.8187 89.619 11.936C89.5123 12.0533 89.3577 12.112 89.155 12.112C88.9417 12.112 88.7763 12.0533 88.659 11.936C88.5523 11.8187 88.499 11.6533 88.499 11.44V7.232C88.499 6.50667 88.355 5.97867 88.067 5.648C87.7897 5.30667 87.3417 5.136 86.723 5.136C86.0083 5.136 85.4377 5.36 85.011 5.808C84.595 6.24533 84.387 6.832 84.387 7.568V11.44C84.387 11.888 84.1683 12.112 83.731 12.112ZM94.6328 12.144C94.0994 12.144 93.6194 12.0427 93.1928 11.84C92.7768 11.6267 92.4461 11.3387 92.2008 10.976C91.9554 10.6133 91.8328 10.208 91.8328 9.76C91.8328 9.184 91.9768 8.73067 92.2648 8.4C92.5634 8.06933 93.0488 7.83467 93.7208 7.696C94.4034 7.55733 95.3314 7.488 96.5048 7.488H97.2248V8.336H96.5208C95.6568 8.336 94.9741 8.37867 94.4728 8.464C93.9821 8.53867 93.6354 8.672 93.4328 8.864C93.2408 9.056 93.1448 9.328 93.1448 9.68C93.1448 10.1173 93.2941 10.4747 93.5928 10.752C93.9021 11.0293 94.3181 11.168 94.8408 11.168C95.2674 11.168 95.6408 11.0667 95.9608 10.864C96.2914 10.6613 96.5474 10.384 96.7288 10.032C96.9208 9.68 97.0168 9.27467 97.0168 8.816V6.992C97.0168 6.33067 96.8834 5.856 96.6168 5.568C96.3501 5.26933 95.9128 5.12 95.3048 5.12C94.9314 5.12 94.5581 5.168 94.1848 5.264C93.8114 5.36 93.4168 5.51467 93.0008 5.728C92.8514 5.80267 92.7234 5.82933 92.6168 5.808C92.5101 5.776 92.4248 5.71733 92.3608 5.632C92.2968 5.54667 92.2594 5.45067 92.2488 5.344C92.2381 5.22667 92.2594 5.11467 92.3128 5.008C92.3768 4.90133 92.4728 4.816 92.6008 4.752C93.0701 4.51733 93.5341 4.34667 93.9928 4.24C94.4514 4.13333 94.8888 4.08 95.3048 4.08C95.9768 4.08 96.5314 4.192 96.9688 4.416C97.4061 4.62933 97.7314 4.96 97.9448 5.408C98.1581 5.84533 98.2648 6.41067 98.2648 7.104V11.44C98.2648 11.6533 98.2114 11.8187 98.1048 11.936C98.0088 12.0533 97.8648 12.112 97.6728 12.112C97.4701 12.112 97.3154 12.0533 97.2088 11.936C97.1021 11.8187 97.0488 11.6533 97.0488 11.44V10.192H97.1928C97.1074 10.5973 96.9421 10.944 96.6968 11.232C96.4621 11.52 96.1688 11.744 95.8168 11.904C95.4648 12.064 95.0701 12.144 94.6328 12.144ZM101.325 12.112C101.112 12.112 100.946 12.0533 100.829 11.936C100.722 11.8187 100.669 11.6533 100.669 11.44V4.768C100.669 4.55467 100.722 4.39467 100.829 4.288C100.936 4.17067 101.09 4.112 101.293 4.112C101.496 4.112 101.65 4.17067 101.757 4.288C101.874 4.39467 101.933 4.55467 101.933 4.768V6.064H101.773C101.944 5.43467 102.269 4.94933 102.749 4.608C103.229 4.26667 103.821 4.08533 104.525 4.064C104.685 4.05333 104.813 4.09067 104.909 4.176C105.005 4.25067 105.058 4.384 105.069 4.576C105.08 4.75733 105.037 4.90133 104.941 5.008C104.845 5.11467 104.696 5.17867 104.493 5.2L104.237 5.232C103.512 5.296 102.952 5.53067 102.557 5.936C102.173 6.33067 101.981 6.87467 101.981 7.568V11.44C101.981 11.6533 101.922 11.8187 101.805 11.936C101.698 12.0533 101.538 12.112 101.325 12.112ZM109.27 12.144C108.576 12.144 107.968 11.9787 107.446 11.648C106.934 11.3173 106.534 10.8533 106.246 10.256C105.968 9.648 105.83 8.93333 105.83 8.112C105.83 7.28 105.968 6.56533 106.246 5.968C106.534 5.36 106.934 4.896 107.446 4.576C107.968 4.24533 108.576 4.08 109.27 4.08C109.974 4.08 110.576 4.256 111.078 4.608C111.579 4.96 111.915 5.43467 112.086 6.032H111.91V1.264C111.91 1.05067 111.963 0.890666 112.07 0.783999C112.187 0.666666 112.352 0.608 112.566 0.608C112.768 0.608 112.923 0.666666 113.03 0.783999C113.147 0.890666 113.206 1.05067 113.206 1.264V11.44C113.206 11.6533 113.152 11.8187 113.046 11.936C112.939 12.0533 112.779 12.112 112.566 12.112C112.363 12.112 112.203 12.0533 112.086 11.936C111.979 11.8187 111.926 11.6533 111.926 11.44V9.92L112.102 10.144C111.931 10.752 111.59 11.2373 111.078 11.6C110.576 11.9627 109.974 12.144 109.27 12.144ZM109.542 11.104C110.022 11.104 110.443 10.9867 110.806 10.752C111.168 10.5173 111.446 10.176 111.638 9.728C111.84 9.28 111.942 8.74133 111.942 8.112C111.942 7.14133 111.723 6.4 111.286 5.888C110.859 5.376 110.278 5.12 109.542 5.12C109.051 5.12 108.624 5.23733 108.262 5.472C107.91 5.696 107.632 6.032 107.43 6.48C107.238 6.91733 107.142 7.46133 107.142 8.112C107.142 9.072 107.36 9.81333 107.798 10.336C108.235 10.848 108.816 11.104 109.542 11.104ZM118.758 12.144C118.15 12.144 117.638 12.0373 117.222 11.824C116.817 11.6 116.513 11.28 116.31 10.864C116.107 10.4373 116.006 9.92 116.006 9.312V5.232H114.934C114.753 5.232 114.614 5.18933 114.518 5.104C114.422 5.008 114.374 4.88 114.374 4.72C114.374 4.56 114.422 4.43733 114.518 4.352C114.614 4.26667 114.753 4.224 114.934 4.224H116.006V2.384C116.006 2.17067 116.065 2.01067 116.182 1.904C116.299 1.78667 116.459 1.728 116.662 1.728C116.865 1.728 117.019 1.78667 117.126 1.904C117.243 2.01067 117.302 2.17067 117.302 2.384V4.224H119.318C119.499 4.224 119.638 4.26667 119.734 4.352C119.83 4.43733 119.878 4.56 119.878 4.72C119.878 4.88 119.83 5.008 119.734 5.104C119.638 5.18933 119.499 5.232 119.318 5.232H117.302V9.184C117.302 9.792 117.43 10.256 117.686 10.576C117.942 10.8853 118.358 11.04 118.934 11.04C119.137 11.04 119.307 11.0187 119.446 10.976C119.595 10.9333 119.718 10.912 119.814 10.912C119.91 10.9013 119.99 10.9333 120.054 11.008C120.118 11.0827 120.15 11.2107 120.15 11.392C120.15 11.52 120.123 11.6373 120.07 11.744C120.027 11.8507 119.947 11.9253 119.83 11.968C119.702 12.0107 119.531 12.048 119.318 12.08C119.115 12.1227 118.929 12.144 118.758 12.144ZM126.205 12C125.97 12 125.794 11.9467 125.677 11.84C125.57 11.7227 125.517 11.568 125.517 11.376C125.517 11.2587 125.543 11.1467 125.597 11.04C125.661 10.9227 125.746 10.8053 125.853 10.688L129.437 6.848C129.981 6.26133 130.37 5.72267 130.605 5.232C130.85 4.73067 130.973 4.224 130.973 3.712C130.973 3.072 130.775 2.58667 130.381 2.256C129.997 1.91467 129.431 1.744 128.685 1.744C128.205 1.744 127.751 1.81867 127.325 1.968C126.898 2.11733 126.487 2.34667 126.093 2.656C125.954 2.76267 125.826 2.81067 125.709 2.8C125.602 2.78933 125.506 2.74667 125.421 2.672C125.335 2.59733 125.277 2.50133 125.245 2.384C125.213 2.26667 125.213 2.14933 125.245 2.032C125.287 1.91467 125.373 1.808 125.501 1.712C125.917 1.37067 126.418 1.09867 127.005 0.896C127.591 0.682666 128.189 0.575999 128.797 0.575999C129.554 0.575999 130.194 0.693333 130.717 0.927999C131.239 1.16267 131.634 1.50933 131.901 1.968C132.167 2.416 132.301 2.96533 132.301 3.616C132.301 4.064 132.226 4.50667 132.077 4.944C131.938 5.37067 131.719 5.808 131.421 6.256C131.133 6.704 130.754 7.168 130.285 7.648L126.877 11.248V10.88H132.269C132.471 10.88 132.621 10.928 132.717 11.024C132.823 11.1093 132.877 11.2427 132.877 11.424C132.877 11.616 132.823 11.76 132.717 11.856C132.621 11.952 132.471 12 132.269 12H126.205ZM138.534 12.144C137.244 12.144 136.262 11.648 135.59 10.656C134.918 9.664 134.582 8.22933 134.582 6.352C134.582 5.09333 134.732 4.03733 135.03 3.184C135.329 2.32 135.772 1.66933 136.358 1.232C136.956 0.794666 137.681 0.575999 138.534 0.575999C139.836 0.575999 140.817 1.06667 141.478 2.048C142.15 3.01867 142.486 4.448 142.486 6.336C142.486 7.59467 142.337 8.656 142.038 9.52C141.74 10.384 141.297 11.04 140.71 11.488C140.124 11.9253 139.398 12.144 138.534 12.144ZM138.534 11.008C139.43 11.008 140.092 10.6293 140.518 9.872C140.956 9.104 141.174 7.92533 141.174 6.336C141.174 4.736 140.956 3.568 140.518 2.832C140.092 2.08533 139.43 1.712 138.534 1.712C137.649 1.712 136.988 2.08533 136.55 2.832C136.113 3.57867 135.894 4.74667 135.894 6.336C135.894 7.92533 136.113 9.104 136.55 9.872C136.988 10.6293 137.649 11.008 138.534 11.008ZM145.392 12C145.157 12 144.981 11.9467 144.864 11.84C144.757 11.7227 144.704 11.568 144.704 11.376C144.704 11.2587 144.731 11.1467 144.784 11.04C144.848 10.9227 144.933 10.8053 145.04 10.688L148.624 6.848C149.168 6.26133 149.557 5.72267 149.792 5.232C150.037 4.73067 150.16 4.224 150.16 3.712C150.16 3.072 149.963 2.58667 149.568 2.256C149.184 1.91467 148.619 1.744 147.872 1.744C147.392 1.744 146.939 1.81867 146.512 1.968C146.085 2.11733 145.675 2.34667 145.28 2.656C145.141 2.76267 145.013 2.81067 144.896 2.8C144.789 2.78933 144.693 2.74667 144.608 2.672C144.523 2.59733 144.464 2.50133 144.432 2.384C144.4 2.26667 144.4 2.14933 144.432 2.032C144.475 1.91467 144.56 1.808 144.688 1.712C145.104 1.37067 145.605 1.09867 146.192 0.896C146.779 0.682666 147.376 0.575999 147.984 0.575999C148.741 0.575999 149.381 0.693333 149.904 0.927999C150.427 1.16267 150.821 1.50933 151.088 1.968C151.355 2.416 151.488 2.96533 151.488 3.616C151.488 4.064 151.413 4.50667 151.264 4.944C151.125 5.37067 150.907 5.808 150.608 6.256C150.32 6.704 149.941 7.168 149.472 7.648L146.064 11.248V10.88H151.456C151.659 10.88 151.808 10.928 151.904 11.024C152.011 11.1093 152.064 11.2427 152.064 11.424C152.064 11.616 152.011 11.76 151.904 11.856C151.808 11.952 151.659 12 151.456 12H145.392ZM157.962 12.144C157.354 12.144 156.746 12.0533 156.138 11.872C155.541 11.6907 154.997 11.408 154.506 11.024C154.378 10.9387 154.293 10.8373 154.25 10.72C154.207 10.6027 154.202 10.4853 154.234 10.368C154.266 10.2507 154.325 10.1547 154.41 10.08C154.495 9.99467 154.597 9.94667 154.714 9.936C154.842 9.92533 154.975 9.968 155.114 10.064C155.551 10.3733 156.005 10.6027 156.474 10.752C156.943 10.9013 157.434 10.976 157.946 10.976C158.469 10.976 158.917 10.88 159.29 10.688C159.674 10.4853 159.962 10.208 160.154 9.856C160.357 9.49333 160.458 9.072 160.458 8.592C160.458 7.856 160.245 7.25333 159.818 6.784C159.391 6.31467 158.805 6.08 158.058 6.08C157.599 6.08 157.178 6.16533 156.794 6.336C156.41 6.50667 156.058 6.77867 155.738 7.152C155.663 7.23733 155.573 7.312 155.466 7.376C155.37 7.42933 155.258 7.456 155.13 7.456C154.949 7.456 154.805 7.408 154.698 7.312C154.602 7.20533 154.554 7.06667 154.554 6.896V1.328C154.554 1.12533 154.607 0.975999 154.714 0.879999C154.821 0.773333 154.97 0.719999 155.162 0.719999H160.602C160.805 0.719999 160.954 0.767999 161.05 0.863999C161.157 0.959999 161.21 1.09867 161.21 1.28C161.21 1.46133 161.157 1.6 161.05 1.696C160.954 1.792 160.805 1.84 160.602 1.84H155.85V6.336H155.498C155.775 5.888 156.159 5.54667 156.65 5.312C157.141 5.06667 157.69 4.944 158.298 4.944C159.013 4.944 159.626 5.09333 160.138 5.392C160.661 5.69067 161.061 6.112 161.338 6.656C161.626 7.18933 161.77 7.81333 161.77 8.528C161.77 9.232 161.615 9.856 161.306 10.4C160.997 10.944 160.559 11.3707 159.994 11.68C159.429 11.9893 158.751 12.144 157.962 12.144Z" fill="#828282"/>
</svg>
