<svg width="115" height="43" viewBox="0 0 115 43" fill="none" xmlns="http://www.w3.org/2000/svg">
<rect width="115" height="43" rx="8" fill="#E5C1CD"/>
<path d="M27.5244 23.2451V28H25.3008V15.2031H30.1963C31.626 15.2031 32.7598 15.5752 33.5977 16.3193C34.4414 17.0635 34.8633 18.0479 34.8633 19.2725C34.8633 20.5264 34.4502 21.502 33.624 22.1992C32.8037 22.8965 31.6523 23.2451 30.1699 23.2451H27.5244ZM27.5244 21.4609H30.1963C30.9873 21.4609 31.5908 21.2764 32.0068 20.9072C32.4229 20.5322 32.6309 19.9932 32.6309 19.29C32.6309 18.5986 32.4199 18.0479 31.998 17.6377C31.5762 17.2217 30.9961 17.0078 30.2578 16.9961H27.5244V21.4609ZM41.5869 20.4414C41.3057 20.3945 41.0156 20.3711 40.7168 20.3711C39.7383 20.3711 39.0791 20.7461 38.7393 21.4961V28H36.6035V18.4902H38.6426L38.6953 19.5537C39.2109 18.7275 39.9258 18.3145 40.8398 18.3145C41.1445 18.3145 41.3965 18.3555 41.5957 18.4375L41.5869 20.4414ZM42.2197 23.1572C42.2197 22.2256 42.4043 21.3877 42.7734 20.6436C43.1426 19.8936 43.6611 19.3193 44.3291 18.9209C44.9971 18.5166 45.7646 18.3145 46.6318 18.3145C47.915 18.3145 48.9551 18.7275 49.752 19.5537C50.5547 20.3799 50.9883 21.4756 51.0527 22.8408L51.0615 23.3418C51.0615 24.2793 50.8799 25.1172 50.5166 25.8555C50.1592 26.5938 49.6436 27.165 48.9697 27.5693C48.3018 27.9736 47.5283 28.1758 46.6494 28.1758C45.3076 28.1758 44.2324 27.7305 43.4238 26.8398C42.6211 25.9434 42.2197 24.751 42.2197 23.2627V23.1572ZM44.3555 23.3418C44.3555 24.3203 44.5576 25.0879 44.9619 25.6445C45.3662 26.1953 45.9287 26.4707 46.6494 26.4707C47.3701 26.4707 47.9297 26.1895 48.3281 25.627C48.7324 25.0645 48.9346 24.2412 48.9346 23.1572C48.9346 22.1963 48.7266 21.4346 48.3105 20.8721C47.9004 20.3096 47.3408 20.0283 46.6318 20.0283C45.9346 20.0283 45.3809 20.3066 44.9707 20.8633C44.5605 21.4141 44.3555 22.2402 44.3555 23.3418ZM55.0957 18.4902V28.8438C55.0957 29.8164 54.8525 30.5576 54.3662 31.0674C53.8857 31.583 53.1797 31.8408 52.248 31.8408C51.8555 31.8408 51.4775 31.791 51.1143 31.6914V30.0039C51.3369 30.0566 51.5889 30.083 51.8701 30.083C52.5791 30.083 52.9424 29.6963 52.96 28.9229V18.4902H55.0957ZM52.7754 16.0205C52.7754 15.6924 52.8779 15.4199 53.083 15.2031C53.2939 14.9863 53.5928 14.8779 53.9795 14.8779C54.3662 14.8779 54.665 14.9863 54.876 15.2031C55.0869 15.4199 55.1924 15.6924 55.1924 16.0205C55.1924 16.3428 55.0869 16.6123 54.876 16.8291C54.665 17.04 54.3662 17.1455 53.9795 17.1455C53.5928 17.1455 53.2939 17.04 53.083 16.8291C52.8779 16.6123 52.7754 16.3428 52.7754 16.0205ZM61.5732 28.1758C60.2197 28.1758 59.1211 27.751 58.2773 26.9014C57.4395 26.0459 57.0205 24.9092 57.0205 23.4912V23.2275C57.0205 22.2783 57.2021 21.4316 57.5654 20.6875C57.9346 19.9375 58.4502 19.3545 59.1123 18.9385C59.7744 18.5225 60.5127 18.3145 61.3271 18.3145C62.6221 18.3145 63.6211 18.7275 64.3242 19.5537C65.0332 20.3799 65.3877 21.5488 65.3877 23.0605V23.9219H59.1738C59.2383 24.707 59.499 25.3281 59.9561 25.7852C60.4189 26.2422 60.999 26.4707 61.6963 26.4707C62.6748 26.4707 63.4717 26.0752 64.0869 25.2842L65.2383 26.3828C64.8574 26.9512 64.3477 27.3936 63.709 27.71C63.0762 28.0205 62.3643 28.1758 61.5732 28.1758ZM61.3184 20.0283C60.7324 20.0283 60.2578 20.2334 59.8945 20.6436C59.5371 21.0537 59.3086 21.625 59.209 22.3574H63.2783V22.1992C63.2314 21.4844 63.041 20.9453 62.707 20.582C62.373 20.2129 61.9102 20.0283 61.3184 20.0283ZM70.96 26.4707C71.4932 26.4707 71.9355 26.3154 72.2871 26.0049C72.6387 25.6943 72.8262 25.3105 72.8496 24.8535H74.8623C74.8389 25.4453 74.6543 25.999 74.3086 26.5146C73.9629 27.0244 73.4941 27.4287 72.9023 27.7275C72.3105 28.0264 71.6719 28.1758 70.9863 28.1758C69.6562 28.1758 68.6016 27.7451 67.8223 26.8838C67.043 26.0225 66.6533 24.833 66.6533 23.3154V23.0957C66.6533 21.6484 67.04 20.4912 67.8135 19.624C68.5869 18.751 69.6416 18.3145 70.9775 18.3145C72.1084 18.3145 73.0283 18.6455 73.7373 19.3076C74.4521 19.9639 74.8271 20.8281 74.8623 21.9004H72.8496C72.8262 21.3555 72.6387 20.9072 72.2871 20.5557C71.9414 20.2041 71.499 20.0283 70.96 20.0283C70.2686 20.0283 69.7354 20.2803 69.3604 20.7842C68.9854 21.2822 68.7949 22.041 68.7891 23.0605V23.4033C68.7891 24.4346 68.9736 25.2051 69.3428 25.7148C69.7178 26.2188 70.2568 26.4707 70.96 26.4707ZM79.1514 16.1787V18.4902H80.8301V20.0723H79.1514V25.3809C79.1514 25.7441 79.2217 26.0078 79.3623 26.1719C79.5088 26.3301 79.7666 26.4092 80.1357 26.4092C80.3818 26.4092 80.6309 26.3799 80.8828 26.3213V27.9736C80.3965 28.1084 79.9277 28.1758 79.4766 28.1758C77.8359 28.1758 77.0156 27.2705 77.0156 25.46V20.0723H75.4512V18.4902H77.0156V16.1787H79.1514ZM87.7998 25.416C87.7998 25.0352 87.6416 24.7451 87.3252 24.5459C87.0146 24.3467 86.4961 24.1709 85.7695 24.0186C85.043 23.8662 84.4365 23.6729 83.9502 23.4385C82.8838 22.9229 82.3506 22.1758 82.3506 21.1973C82.3506 20.377 82.6963 19.6914 83.3877 19.1406C84.0791 18.5898 84.958 18.3145 86.0244 18.3145C87.1611 18.3145 88.0781 18.5957 88.7754 19.1582C89.4785 19.7207 89.8301 20.4502 89.8301 21.3467H87.6943C87.6943 20.9365 87.542 20.5967 87.2373 20.3271C86.9326 20.0518 86.5283 19.9141 86.0244 19.9141C85.5557 19.9141 85.1719 20.0225 84.873 20.2393C84.5801 20.4561 84.4336 20.7461 84.4336 21.1094C84.4336 21.4375 84.5713 21.6924 84.8467 21.874C85.1221 22.0557 85.6787 22.2402 86.5166 22.4277C87.3545 22.6094 88.0107 22.8291 88.4854 23.0869C88.9658 23.3389 89.3203 23.6436 89.5488 24.001C89.7832 24.3584 89.9004 24.792 89.9004 25.3018C89.9004 26.1572 89.5459 26.8516 88.8369 27.3848C88.1279 27.9121 87.1992 28.1758 86.0508 28.1758C85.2715 28.1758 84.5771 28.0352 83.9678 27.7539C83.3584 27.4727 82.8838 27.0859 82.5439 26.5938C82.2041 26.1016 82.0342 25.5713 82.0342 25.0029H84.1084C84.1377 25.5068 84.3281 25.8965 84.6797 26.1719C85.0312 26.4414 85.4971 26.5762 86.0771 26.5762C86.6396 26.5762 87.0674 26.4707 87.3604 26.2598C87.6533 26.043 87.7998 25.7617 87.7998 25.416Z" fill="#25282B"/>
</svg>
