<svg width="600" height="428" viewBox="0 0 600 428" fill="none" xmlns="http://www.w3.org/2000/svg">
<path d="M1.248 16.112C1.03467 16.112 0.864 16.064 0.736 15.968C0.608 15.872 0.533333 15.744 0.512 15.584C0.490667 15.424 0.522667 15.2427 0.608 15.04L4.944 5.312C5.05067 5.056 5.184 4.87467 5.344 4.768C5.51467 4.66133 5.70133 4.608 5.904 4.608C6.096 4.608 6.272 4.66133 6.432 4.768C6.60267 4.87467 6.74133 5.056 6.848 5.312L11.184 15.04C11.28 15.2427 11.3173 15.4293 11.296 15.6C11.2747 15.76 11.2053 15.888 11.088 15.984C10.9707 16.0693 10.8053 16.112 10.592 16.112C10.3573 16.112 10.1707 16.0533 10.032 15.936C9.89333 15.8187 9.77067 15.6373 9.664 15.392L8.544 12.8L9.296 13.248H2.48L3.216 12.8L2.112 15.392C2.00533 15.648 1.888 15.8347 1.76 15.952C1.632 16.0587 1.46133 16.112 1.248 16.112ZM5.872 6.56L3.456 12.288L3.056 11.904H8.704L8.336 12.288L5.904 6.56H5.872ZM17.1093 16.144C16.4266 16.144 15.8346 15.9733 15.3333 15.632C14.8319 15.28 14.4959 14.816 14.3253 14.24L14.5013 13.952V15.296C14.5013 15.552 14.4319 15.7547 14.2933 15.904C14.1546 16.0427 13.9626 16.112 13.7173 16.112C13.4613 16.112 13.2639 16.0427 13.1253 15.904C12.9866 15.7547 12.9173 15.552 12.9173 15.296V5.424C12.9173 5.15733 12.9866 4.95467 13.1253 4.816C13.2639 4.67733 13.4613 4.608 13.7173 4.608C13.9733 4.608 14.1706 4.67733 14.3093 4.816C14.4586 4.95467 14.5333 5.15733 14.5333 5.424V9.904H14.3413C14.5119 9.33867 14.8479 8.89067 15.3493 8.56C15.8506 8.21867 16.4373 8.048 17.1093 8.048C17.8133 8.048 18.4213 8.21333 18.9333 8.544C19.4453 8.87467 19.8399 9.33867 20.1173 9.936C20.4053 10.5333 20.5493 11.2533 20.5493 12.096C20.5493 12.9173 20.4053 13.6373 20.1173 14.256C19.8399 14.864 19.4399 15.3333 18.9173 15.664C18.4053 15.984 17.8026 16.144 17.1093 16.144ZM16.7093 14.896C17.1573 14.896 17.5466 14.7893 17.8773 14.576C18.2079 14.3627 18.4639 14.048 18.6453 13.632C18.8266 13.216 18.9173 12.704 18.9173 12.096C18.9173 11.1787 18.7146 10.4853 18.3093 10.016C17.9146 9.54667 17.3813 9.312 16.7093 9.312C16.2719 9.312 15.8826 9.41867 15.5413 9.632C15.2106 9.83467 14.9546 10.144 14.7733 10.56C14.5919 10.976 14.5013 11.488 14.5013 12.096C14.5013 13.0027 14.7039 13.696 15.1093 14.176C15.5146 14.656 16.0479 14.896 16.7093 14.896ZM25.7624 16.144C24.973 16.144 24.2904 15.9787 23.7144 15.648C23.149 15.3173 22.7064 14.848 22.3864 14.24C22.0664 13.632 21.9064 12.9173 21.9064 12.096C21.9064 11.4667 21.997 10.9067 22.1784 10.416C22.3597 9.92533 22.6157 9.504 22.9464 9.152C23.2877 8.78933 23.693 8.51733 24.1624 8.336C24.6424 8.144 25.1757 8.048 25.7624 8.048C26.541 8.048 27.213 8.21333 27.7784 8.544C28.3544 8.87467 28.8024 9.344 29.1224 9.952C29.4424 10.5493 29.6024 11.264 29.6024 12.096C29.6024 12.7147 29.5117 13.2747 29.3304 13.776C29.149 14.2773 28.8877 14.704 28.5464 15.056C28.2157 15.408 27.8104 15.68 27.3304 15.872C26.861 16.0533 26.3384 16.144 25.7624 16.144ZM25.7624 14.896C26.1997 14.896 26.5837 14.7893 26.9144 14.576C27.245 14.3627 27.501 14.048 27.6824 13.632C27.8744 13.216 27.9704 12.704 27.9704 12.096C27.9704 11.1787 27.7677 10.4853 27.3624 10.016C26.957 9.54667 26.4237 9.312 25.7624 9.312C25.3144 9.312 24.925 9.41867 24.5944 9.632C24.2637 9.83467 24.0024 10.144 23.8104 10.56C23.629 10.976 23.5384 11.488 23.5384 12.096C23.5384 13.0027 23.741 13.696 24.1464 14.176C24.5517 14.656 25.0904 14.896 25.7624 14.896ZM34.2013 16.144C33.5719 16.144 33.0439 16.0267 32.6173 15.792C32.2013 15.5573 31.8866 15.2107 31.6733 14.752C31.4706 14.2827 31.3693 13.696 31.3693 12.992V8.896C31.3693 8.61867 31.4386 8.416 31.5773 8.288C31.7159 8.14933 31.9133 8.08 32.1693 8.08C32.4253 8.08 32.6226 8.14933 32.7613 8.288C32.9106 8.416 32.9853 8.61867 32.9853 8.896V13.008C32.9853 13.6373 33.1133 14.1013 33.3693 14.4C33.6253 14.6987 34.0306 14.848 34.5853 14.848C35.1933 14.848 35.6839 14.6453 36.0573 14.24C36.4413 13.824 36.6333 13.28 36.6333 12.608V8.896C36.6333 8.61867 36.7026 8.416 36.8413 8.288C36.9799 8.14933 37.1826 8.08 37.4493 8.08C37.7053 8.08 37.9026 8.14933 38.0413 8.288C38.1799 8.416 38.2493 8.61867 38.2493 8.896V15.296C38.2493 15.84 37.9879 16.112 37.4653 16.112C37.2199 16.112 37.0279 16.0427 36.8893 15.904C36.7506 15.7547 36.6813 15.552 36.6813 15.296V13.936L36.8893 14.288C36.6759 14.8853 36.3346 15.344 35.8653 15.664C35.3959 15.984 34.8413 16.144 34.2013 16.144ZM43.8546 16.144C43.2146 16.144 42.676 16.032 42.2386 15.808C41.8013 15.584 41.476 15.2533 41.2626 14.816C41.0493 14.3787 40.9426 13.8453 40.9426 13.216V9.44H39.9826C39.7693 9.44 39.604 9.38667 39.4866 9.28C39.3693 9.16267 39.3106 9.008 39.3106 8.816C39.3106 8.61333 39.3693 8.45867 39.4866 8.352C39.604 8.24533 39.7693 8.192 39.9826 8.192H40.9426V6.544C40.9426 6.27733 41.012 6.07467 41.1506 5.936C41.3 5.79733 41.5026 5.728 41.7586 5.728C42.0146 5.728 42.212 5.79733 42.3506 5.936C42.4893 6.07467 42.5586 6.27733 42.5586 6.544V8.192H44.4306C44.644 8.192 44.8093 8.24533 44.9266 8.352C45.044 8.45867 45.1026 8.61333 45.1026 8.816C45.1026 9.008 45.044 9.16267 44.9266 9.28C44.8093 9.38667 44.644 9.44 44.4306 9.44H42.5586V13.088C42.5586 13.6533 42.676 14.08 42.9106 14.368C43.156 14.656 43.5506 14.8 44.0946 14.8C44.2866 14.8 44.452 14.784 44.5906 14.752C44.74 14.7093 44.8626 14.6827 44.9586 14.672C45.076 14.672 45.172 14.7147 45.2466 14.8C45.3213 14.8747 45.3586 15.024 45.3586 15.248C45.3586 15.408 45.3266 15.5573 45.2626 15.696C45.2093 15.8347 45.108 15.9253 44.9586 15.968C44.8306 16.0107 44.6546 16.048 44.4306 16.08C44.2173 16.1227 44.0253 16.144 43.8546 16.144ZM54.3491 16.112C54.0825 16.112 53.8745 16.0373 53.7251 15.888C53.5865 15.7387 53.5171 15.5307 53.5171 15.264V6.112H50.1251C49.9011 6.112 49.7251 6.05333 49.5971 5.936C49.4691 5.808 49.4051 5.632 49.4051 5.408C49.4051 5.184 49.4691 5.01333 49.5971 4.896C49.7251 4.77867 49.9011 4.72 50.1251 4.72H58.5571C58.7918 4.72 58.9731 4.77867 59.1011 4.896C59.2291 5.01333 59.2931 5.184 59.2931 5.408C59.2931 5.632 59.2291 5.808 59.1011 5.936C58.9731 6.05333 58.7918 6.112 58.5571 6.112H55.1651V15.264C55.1651 15.5307 55.0958 15.7387 54.9571 15.888C54.8291 16.0373 54.6265 16.112 54.3491 16.112ZM61.7954 16.112C61.5394 16.112 61.342 16.0427 61.2034 15.904C61.0647 15.7547 60.9954 15.552 60.9954 15.296V5.424C60.9954 5.15733 61.0647 4.95467 61.2034 4.816C61.342 4.67733 61.5394 4.608 61.7954 4.608C62.0514 4.608 62.2487 4.67733 62.3874 4.816C62.5367 4.95467 62.6114 5.15733 62.6114 5.424V9.856H62.3874C62.622 9.25867 62.99 8.81067 63.4914 8.512C63.9927 8.20267 64.5687 8.048 65.2194 8.048C65.838 8.048 66.35 8.16533 66.7554 8.4C67.1714 8.624 67.4807 8.97067 67.6834 9.44C67.886 9.89867 67.9874 10.48 67.9874 11.184V15.296C67.9874 15.552 67.918 15.7547 67.7794 15.904C67.6407 16.0427 67.4434 16.112 67.1874 16.112C66.9207 16.112 66.718 16.0427 66.5794 15.904C66.4407 15.7547 66.3714 15.552 66.3714 15.296V11.28C66.3714 10.608 66.238 10.1173 65.9714 9.808C65.7154 9.49867 65.31 9.344 64.7554 9.344C64.1047 9.344 63.582 9.54667 63.1874 9.952C62.8034 10.3573 62.6114 10.9013 62.6114 11.584V15.296C62.6114 15.84 62.3394 16.112 61.7954 16.112ZM71.0141 16.096C70.7581 16.096 70.5608 16.0213 70.4221 15.872C70.2835 15.712 70.2141 15.4933 70.2141 15.216V8.976C70.2141 8.69867 70.2835 8.48533 70.4221 8.336C70.5608 8.18667 70.7581 8.112 71.0141 8.112C71.2701 8.112 71.4675 8.18667 71.6061 8.336C71.7555 8.48533 71.8301 8.69867 71.8301 8.976V15.216C71.8301 15.4933 71.7608 15.712 71.6221 15.872C71.4835 16.0213 71.2808 16.096 71.0141 16.096ZM71.0141 6.448C70.6941 6.448 70.4435 6.368 70.2621 6.208C70.0915 6.048 70.0061 5.824 70.0061 5.536C70.0061 5.23733 70.0915 5.01333 70.2621 4.864C70.4435 4.704 70.6941 4.624 71.0141 4.624C71.3341 4.624 71.5795 4.704 71.7501 4.864C71.9315 5.01333 72.0221 5.23733 72.0221 5.536C72.0221 5.824 71.9315 6.048 71.7501 6.208C71.5795 6.368 71.3341 6.448 71.0141 6.448ZM76.8408 16.144C76.3714 16.144 75.8861 16.0907 75.3848 15.984C74.8941 15.8773 74.4408 15.696 74.0247 15.44C73.8861 15.344 73.7901 15.2373 73.7368 15.12C73.6834 15.0027 73.6621 14.8853 73.6728 14.768C73.6941 14.64 73.7421 14.5333 73.8168 14.448C73.9021 14.352 74.0034 14.2933 74.1208 14.272C74.2488 14.2507 74.3821 14.2773 74.5208 14.352C74.9368 14.5867 75.3368 14.752 75.7208 14.848C76.1048 14.9333 76.4834 14.976 76.8568 14.976C77.4221 14.976 77.8488 14.8747 78.1368 14.672C78.4248 14.4693 78.5688 14.1973 78.5688 13.856C78.5688 13.5787 78.4728 13.3653 78.2808 13.216C78.0888 13.056 77.8008 12.9333 77.4168 12.848L75.8968 12.544C75.2354 12.4053 74.7341 12.16 74.3928 11.808C74.0514 11.456 73.8808 11.008 73.8808 10.464C73.8808 9.97333 74.0141 9.54667 74.2808 9.184C74.5474 8.82133 74.9208 8.544 75.4008 8.352C75.8808 8.14933 76.4354 8.048 77.0648 8.048C77.5341 8.048 77.9768 8.10667 78.3928 8.224C78.8088 8.34133 79.1928 8.51733 79.5448 8.752C79.6834 8.82667 79.7741 8.928 79.8168 9.056C79.8594 9.17333 79.8648 9.29067 79.8328 9.408C79.8114 9.52533 79.7581 9.632 79.6728 9.728C79.5874 9.81333 79.4808 9.86667 79.3528 9.888C79.2354 9.89867 79.1021 9.86667 78.9528 9.792C78.6328 9.58933 78.3128 9.44533 77.9928 9.36C77.6834 9.27467 77.3741 9.232 77.0648 9.232C76.4994 9.232 76.0728 9.33867 75.7848 9.552C75.5074 9.75467 75.3688 10.032 75.3688 10.384C75.3688 10.6507 75.4541 10.8693 75.6248 11.04C75.7954 11.2107 76.0621 11.3333 76.4248 11.408L77.9448 11.712C78.6381 11.8507 79.1608 12.0853 79.5128 12.416C79.8754 12.7467 80.0568 13.1947 80.0568 13.76C80.0568 14.496 79.7634 15.0773 79.1768 15.504C78.5901 15.9307 77.8114 16.144 76.8408 16.144ZM87.0815 16.112C86.8148 16.112 86.6068 16.0373 86.4575 15.888C86.3188 15.7387 86.2495 15.5307 86.2495 15.264V5.568C86.2495 5.29067 86.3242 5.08267 86.4735 4.944C86.6228 4.79467 86.8308 4.72 87.0975 4.72H90.9215C92.1375 4.72 93.0762 5.024 93.7375 5.632C94.3988 6.22933 94.7295 7.072 94.7295 8.16C94.7295 9.25867 94.3988 10.112 93.7375 10.72C93.0762 11.3173 92.1375 11.616 90.9215 11.616H87.9135V15.264C87.9135 15.5307 87.8442 15.7387 87.7055 15.888C87.5668 16.0373 87.3588 16.112 87.0815 16.112ZM87.9135 10.288H90.6815C91.4815 10.288 92.0842 10.112 92.4895 9.76C92.9055 9.39733 93.1135 8.864 93.1135 8.16C93.1135 7.46667 92.9055 6.944 92.4895 6.592C92.0842 6.22933 91.4815 6.048 90.6815 6.048H87.9135V10.288ZM96.9989 16.112C96.7322 16.112 96.5295 16.0427 96.3909 15.904C96.2522 15.7547 96.1829 15.552 96.1829 15.296V8.896C96.1829 8.62933 96.2522 8.42667 96.3909 8.288C96.5295 8.14933 96.7215 8.08 96.9669 8.08C97.2229 8.08 97.4149 8.14933 97.5429 8.288C97.6815 8.42667 97.7509 8.62933 97.7509 8.896V10.064H97.5909C97.7615 9.424 98.0762 8.93867 98.5349 8.608C98.9935 8.27733 99.5802 8.08533 100.295 8.032C100.487 8.02133 100.636 8.06933 100.743 8.176C100.86 8.28267 100.924 8.448 100.935 8.672C100.956 8.896 100.908 9.07733 100.791 9.216C100.674 9.344 100.492 9.41867 100.247 9.44L99.9429 9.472C99.2495 9.536 98.7215 9.75467 98.3589 10.128C97.9962 10.5013 97.8149 11.0133 97.8149 11.664V15.296C97.8149 15.552 97.7455 15.7547 97.6069 15.904C97.4789 16.0427 97.2762 16.112 96.9989 16.112ZM105.434 16.144C104.645 16.144 103.962 15.9787 103.386 15.648C102.821 15.3173 102.378 14.848 102.058 14.24C101.738 13.632 101.578 12.9173 101.578 12.096C101.578 11.4667 101.669 10.9067 101.85 10.416C102.032 9.92533 102.288 9.504 102.618 9.152C102.96 8.78933 103.365 8.51733 103.834 8.336C104.314 8.144 104.848 8.048 105.434 8.048C106.213 8.048 106.885 8.21333 107.45 8.544C108.026 8.87467 108.474 9.344 108.794 9.952C109.114 10.5493 109.274 11.264 109.274 12.096C109.274 12.7147 109.184 13.2747 109.002 13.776C108.821 14.2773 108.56 14.704 108.218 15.056C107.888 15.408 107.482 15.68 107.002 15.872C106.533 16.0533 106.01 16.144 105.434 16.144ZM105.434 14.896C105.872 14.896 106.256 14.7893 106.586 14.576C106.917 14.3627 107.173 14.048 107.354 13.632C107.546 13.216 107.642 12.704 107.642 12.096C107.642 11.1787 107.44 10.4853 107.034 10.016C106.629 9.54667 106.096 9.312 105.434 9.312C104.986 9.312 104.597 9.41867 104.266 9.632C103.936 9.83467 103.674 10.144 103.482 10.56C103.301 10.976 103.21 11.488 103.21 12.096C103.21 13.0027 103.413 13.696 103.818 14.176C104.224 14.656 104.762 14.896 105.434 14.896ZM109.841 19.04C109.649 19.0507 109.494 19.0187 109.377 18.944C109.249 18.8693 109.164 18.7733 109.121 18.656C109.068 18.5387 109.052 18.416 109.073 18.288C109.084 18.1707 109.137 18.064 109.233 17.968C109.318 17.8827 109.436 17.8347 109.585 17.824C110.118 17.792 110.508 17.648 110.753 17.392C111.009 17.136 111.137 16.7307 111.137 16.176V8.896C111.137 8.62933 111.206 8.42667 111.345 8.288C111.494 8.14933 111.697 8.08 111.953 8.08C112.22 8.08 112.417 8.14933 112.545 8.288C112.684 8.42667 112.753 8.62933 112.753 8.896V16.048C112.753 16.7093 112.641 17.2533 112.417 17.68C112.204 18.1173 111.884 18.4427 111.457 18.656C111.03 18.8693 110.492 18.9973 109.841 19.04ZM111.953 6.448C111.633 6.448 111.382 6.368 111.201 6.208C111.03 6.048 110.945 5.824 110.945 5.536C110.945 5.23733 111.03 5.01333 111.201 4.864C111.382 4.704 111.633 4.624 111.953 4.624C112.273 4.624 112.518 4.704 112.689 4.864C112.86 5.01333 112.945 5.23733 112.945 5.536C112.945 5.824 112.86 6.048 112.689 6.208C112.518 6.368 112.273 6.448 111.953 6.448ZM118.691 16.144C117.837 16.144 117.101 15.984 116.483 15.664C115.875 15.3333 115.4 14.8693 115.059 14.272C114.728 13.664 114.563 12.944 114.563 12.112C114.563 11.3013 114.728 10.592 115.059 9.984C115.389 9.376 115.843 8.90133 116.419 8.56C116.995 8.21867 117.651 8.048 118.387 8.048C118.931 8.048 119.416 8.13867 119.843 8.32C120.269 8.49067 120.632 8.74667 120.931 9.088C121.24 9.41867 121.469 9.824 121.619 10.304C121.779 10.784 121.859 11.3227 121.859 11.92C121.859 12.1013 121.805 12.24 121.699 12.336C121.592 12.4213 121.432 12.464 121.219 12.464H115.843V11.472H120.771L120.499 11.696C120.499 11.1627 120.419 10.7093 120.259 10.336C120.109 9.96267 119.88 9.68 119.571 9.488C119.272 9.28533 118.899 9.184 118.451 9.184C117.949 9.184 117.523 9.30133 117.171 9.536C116.829 9.77067 116.568 10.096 116.387 10.512C116.205 10.928 116.115 11.4133 116.115 11.968V12.064C116.115 13.0027 116.333 13.712 116.771 14.192C117.219 14.6613 117.864 14.896 118.707 14.896C119.027 14.896 119.363 14.8533 119.715 14.768C120.077 14.6827 120.419 14.5387 120.739 14.336C120.92 14.2293 121.08 14.1813 121.219 14.192C121.368 14.2027 121.485 14.2507 121.571 14.336C121.667 14.4213 121.725 14.528 121.747 14.656C121.768 14.784 121.747 14.9173 121.683 15.056C121.619 15.184 121.507 15.3013 121.347 15.408C120.984 15.6533 120.563 15.84 120.083 15.968C119.603 16.0853 119.139 16.144 118.691 16.144ZM127.06 16.144C126.26 16.144 125.567 15.9787 124.98 15.648C124.404 15.3067 123.956 14.832 123.636 14.224C123.316 13.6053 123.156 12.88 123.156 12.048C123.156 11.4293 123.247 10.8747 123.428 10.384C123.61 9.88267 123.866 9.46133 124.196 9.12C124.538 8.77867 124.948 8.51733 125.428 8.336C125.919 8.144 126.463 8.048 127.06 8.048C127.434 8.048 127.823 8.10667 128.228 8.224C128.644 8.33067 129.028 8.512 129.38 8.768C129.519 8.85333 129.604 8.96 129.636 9.088C129.679 9.20533 129.684 9.328 129.652 9.456C129.631 9.584 129.572 9.696 129.476 9.792C129.391 9.87733 129.284 9.93067 129.156 9.952C129.028 9.96267 128.89 9.92533 128.74 9.84C128.484 9.65867 128.223 9.53067 127.956 9.456C127.69 9.37067 127.434 9.328 127.188 9.328C126.804 9.328 126.463 9.392 126.164 9.52C125.876 9.63733 125.631 9.81333 125.428 10.048C125.226 10.272 125.071 10.5547 124.964 10.896C124.868 11.2373 124.82 11.6267 124.82 12.064C124.82 12.9387 125.023 13.6267 125.428 14.128C125.844 14.6187 126.431 14.864 127.188 14.864C127.434 14.864 127.69 14.8267 127.956 14.752C128.223 14.6773 128.484 14.5493 128.74 14.368C128.89 14.2827 129.028 14.2507 129.156 14.272C129.284 14.2933 129.386 14.352 129.46 14.448C129.546 14.5333 129.599 14.64 129.62 14.768C129.652 14.8853 129.647 15.008 129.604 15.136C129.562 15.264 129.471 15.3707 129.332 15.456C128.991 15.7013 128.618 15.8773 128.212 15.984C127.818 16.0907 127.434 16.144 127.06 16.144ZM134.433 16.144C133.793 16.144 133.254 16.032 132.817 15.808C132.379 15.584 132.054 15.2533 131.841 14.816C131.627 14.3787 131.521 13.8453 131.521 13.216V9.44H130.561C130.347 9.44 130.182 9.38667 130.065 9.28C129.947 9.16267 129.889 9.008 129.889 8.816C129.889 8.61333 129.947 8.45867 130.065 8.352C130.182 8.24533 130.347 8.192 130.561 8.192H131.521V6.544C131.521 6.27733 131.59 6.07467 131.729 5.936C131.878 5.79733 132.081 5.728 132.337 5.728C132.593 5.728 132.79 5.79733 132.929 5.936C133.067 6.07467 133.137 6.27733 133.137 6.544V8.192H135.009C135.222 8.192 135.387 8.24533 135.505 8.352C135.622 8.45867 135.681 8.61333 135.681 8.816C135.681 9.008 135.622 9.16267 135.505 9.28C135.387 9.38667 135.222 9.44 135.009 9.44H133.137V13.088C133.137 13.6533 133.254 14.08 133.489 14.368C133.734 14.656 134.129 14.8 134.673 14.8C134.865 14.8 135.03 14.784 135.169 14.752C135.318 14.7093 135.441 14.6827 135.537 14.672C135.654 14.672 135.75 14.7147 135.825 14.8C135.899 14.8747 135.937 15.024 135.937 15.248C135.937 15.408 135.905 15.5573 135.841 15.696C135.787 15.8347 135.686 15.9253 135.537 15.968C135.409 16.0107 135.233 16.048 135.009 16.08C134.795 16.1227 134.603 16.144 134.433 16.144ZM137.748 16.064C137.439 16.064 137.188 15.968 136.996 15.776C136.804 15.584 136.708 15.3387 136.708 15.04C136.708 14.7413 136.804 14.5013 136.996 14.32C137.188 14.128 137.439 14.032 137.748 14.032C138.057 14.032 138.303 14.128 138.484 14.32C138.665 14.5013 138.756 14.7413 138.756 15.04C138.756 15.3387 138.665 15.584 138.484 15.776C138.303 15.968 138.057 16.064 137.748 16.064ZM137.748 10.16C137.439 10.16 137.188 10.064 136.996 9.872C136.804 9.68 136.708 9.44 136.708 9.152C136.708 8.84267 136.804 8.59733 136.996 8.416C137.188 8.224 137.439 8.128 137.748 8.128C138.057 8.128 138.303 8.224 138.484 8.416C138.665 8.59733 138.756 8.84267 138.756 9.152C138.756 9.44 138.665 9.68 138.484 9.872C138.303 10.064 138.057 10.16 137.748 10.16Z" fill="#25282B"/>
<rect x="0.5" y="30.5" width="599" height="397" rx="7.5" fill="white"/>
<rect x="0.5" y="30.5" width="599" height="397" rx="7.5" stroke="#E8ECF4"/>
</svg>
