<svg width="114" height="43" viewBox="0 0 114 43" fill="none" xmlns="http://www.w3.org/2000/svg">
<rect width="114" height="43" rx="8" fill="#F3DCBF"/>
<path d="M25.3008 15.2031H29.8271C30.7998 15.2031 31.6289 15.3496 32.3145 15.6426C33 15.9355 33.5244 16.3691 33.8877 16.9434C34.2568 17.5117 34.4414 18.2148 34.4414 19.0527C34.4414 19.6914 34.3242 20.2539 34.0898 20.7402C33.8555 21.2266 33.5244 21.6367 33.0967 21.9707C32.6689 22.2988 32.1592 22.5537 31.5674 22.7354L30.8994 23.0605H26.8301L26.8125 21.3115H29.8623C30.3896 21.3115 30.8291 21.2178 31.1807 21.0303C31.5322 20.8428 31.7959 20.5879 31.9717 20.2656C32.1533 19.9375 32.2441 19.5684 32.2441 19.1582C32.2441 18.7129 32.1562 18.3262 31.9805 17.998C31.8105 17.6641 31.5469 17.4092 31.1895 17.2334C30.832 17.0518 30.3779 16.9609 29.8271 16.9609H27.5068V28H25.3008V15.2031ZM32.6045 28L29.5986 22.252L31.9102 22.2432L34.96 27.8857V28H32.6045ZM40.6201 28.1758C39.917 28.1758 39.2812 28.0615 38.7129 27.833C38.1504 27.5986 37.6699 27.2734 37.2715 26.8574C36.8789 26.4414 36.5771 25.9521 36.3662 25.3896C36.1553 24.8271 36.0498 24.2207 36.0498 23.5703V23.2188C36.0498 22.4746 36.1582 21.8008 36.375 21.1973C36.5918 20.5938 36.8936 20.0781 37.2803 19.6504C37.667 19.2168 38.124 18.8857 38.6514 18.6572C39.1787 18.4287 39.75 18.3145 40.3652 18.3145C41.0449 18.3145 41.6396 18.4287 42.1494 18.6572C42.6592 18.8857 43.0811 19.208 43.415 19.624C43.7549 20.0342 44.0068 20.5234 44.1709 21.0918C44.3408 21.6602 44.4258 22.2871 44.4258 22.9727V23.8779H37.0781V22.3574H42.334V22.1904C42.3223 21.8096 42.2461 21.4521 42.1055 21.1182C41.9707 20.7842 41.7627 20.5146 41.4814 20.3096C41.2002 20.1045 40.8252 20.002 40.3564 20.002C40.0049 20.002 39.6914 20.0781 39.416 20.2305C39.1465 20.377 38.9209 20.5908 38.7393 20.8721C38.5576 21.1533 38.417 21.4932 38.3174 21.8916C38.2236 22.2842 38.1768 22.7266 38.1768 23.2188V23.5703C38.1768 23.9863 38.2324 24.373 38.3438 24.7305C38.4609 25.082 38.6309 25.3896 38.8535 25.6533C39.0762 25.917 39.3457 26.125 39.6621 26.2773C39.9785 26.4238 40.3389 26.4971 40.7432 26.4971C41.2529 26.4971 41.707 26.3945 42.1055 26.1895C42.5039 25.9844 42.8496 25.6943 43.1426 25.3193L44.2588 26.4004C44.0537 26.6992 43.7871 26.9863 43.459 27.2617C43.1309 27.5312 42.7295 27.751 42.2549 27.9209C41.7861 28.0908 41.2412 28.1758 40.6201 28.1758ZM51.4131 25.4248C51.4131 25.2139 51.3604 25.0234 51.2549 24.8535C51.1494 24.6777 50.9473 24.5195 50.6484 24.3789C50.3555 24.2383 49.9219 24.1094 49.3477 23.9922C48.8438 23.8809 48.3809 23.749 47.959 23.5967C47.543 23.4385 47.1855 23.248 46.8867 23.0254C46.5879 22.8027 46.3564 22.5391 46.1924 22.2344C46.0283 21.9297 45.9463 21.5781 45.9463 21.1797C45.9463 20.793 46.0312 20.4268 46.2012 20.0811C46.3711 19.7354 46.6143 19.4307 46.9307 19.167C47.2471 18.9033 47.6309 18.6953 48.082 18.543C48.5391 18.3906 49.0488 18.3145 49.6113 18.3145C50.4082 18.3145 51.0908 18.4492 51.6592 18.7188C52.2334 18.9824 52.6729 19.3428 52.9775 19.7998C53.2822 20.251 53.4346 20.7607 53.4346 21.3291H51.3164C51.3164 21.0771 51.252 20.8428 51.123 20.626C51 20.4033 50.8125 20.2246 50.5605 20.0898C50.3086 19.9492 49.9922 19.8789 49.6113 19.8789C49.248 19.8789 48.9463 19.9375 48.7061 20.0547C48.4717 20.166 48.2959 20.3125 48.1787 20.4941C48.0674 20.6758 48.0117 20.875 48.0117 21.0918C48.0117 21.25 48.041 21.3936 48.0996 21.5225C48.1641 21.6455 48.2695 21.7598 48.416 21.8652C48.5625 21.9648 48.7617 22.0586 49.0137 22.1465C49.2715 22.2344 49.5938 22.3193 49.9805 22.4014C50.707 22.5537 51.3311 22.75 51.8525 22.9902C52.3799 23.2246 52.7842 23.5293 53.0654 23.9043C53.3467 24.2734 53.4873 24.7422 53.4873 25.3105C53.4873 25.7324 53.3965 26.1191 53.2148 26.4707C53.0391 26.8164 52.7812 27.1182 52.4414 27.376C52.1016 27.6279 51.6943 27.8242 51.2197 27.9648C50.751 28.1055 50.2236 28.1758 49.6377 28.1758C48.7764 28.1758 48.0469 28.0234 47.4492 27.7188C46.8516 27.4082 46.3975 27.0127 46.0869 26.5322C45.7822 26.0459 45.6299 25.542 45.6299 25.0205H47.6777C47.7012 25.4131 47.8096 25.7266 48.0029 25.9609C48.2021 26.1895 48.4482 26.3564 48.7412 26.4619C49.04 26.5615 49.3477 26.6113 49.6641 26.6113C50.0449 26.6113 50.3643 26.5615 50.6221 26.4619C50.8799 26.3564 51.0762 26.2158 51.2109 26.04C51.3457 25.8584 51.4131 25.6533 51.4131 25.4248ZM61.0635 25.7588V18.4902H63.1904V28H61.1865L61.0635 25.7588ZM61.3623 23.7812L62.0742 23.7637C62.0742 24.4023 62.0039 24.9912 61.8633 25.5303C61.7227 26.0635 61.5059 26.5293 61.2129 26.9277C60.9199 27.3203 60.5449 27.6279 60.0879 27.8506C59.6309 28.0674 59.083 28.1758 58.4443 28.1758C57.9814 28.1758 57.5566 28.1084 57.1699 27.9736C56.7832 27.8389 56.4492 27.6309 56.168 27.3496C55.8926 27.0684 55.6787 26.7021 55.5264 26.251C55.374 25.7998 55.2979 25.2607 55.2979 24.6338V18.4902H57.416V24.6514C57.416 24.9971 57.457 25.2871 57.5391 25.5215C57.6211 25.75 57.7324 25.9346 57.873 26.0752C58.0137 26.2158 58.1777 26.3154 58.3652 26.374C58.5527 26.4326 58.752 26.4619 58.9629 26.4619C59.5664 26.4619 60.041 26.3447 60.3867 26.1104C60.7383 25.8701 60.9873 25.5479 61.1338 25.1436C61.2861 24.7393 61.3623 24.2852 61.3623 23.7812ZM67.4795 20.4238V28H65.3613V18.4902H67.3564L67.4795 20.4238ZM67.1367 22.8936L66.416 22.8848C66.416 22.2285 66.498 21.6221 66.6621 21.0654C66.8262 20.5088 67.0664 20.0254 67.3828 19.6152C67.6992 19.1992 68.0918 18.8799 68.5605 18.6572C69.0352 18.4287 69.583 18.3145 70.2041 18.3145C70.6377 18.3145 71.0332 18.3789 71.3906 18.5078C71.7539 18.6309 72.0674 18.8271 72.3311 19.0967C72.6006 19.3662 72.8057 19.7119 72.9463 20.1338C73.0928 20.5557 73.166 21.0654 73.166 21.6631V28H71.0479V21.8477C71.0479 21.3848 70.9775 21.0215 70.8369 20.7578C70.7021 20.4941 70.5059 20.3066 70.248 20.1953C69.9961 20.0781 69.6943 20.0195 69.3428 20.0195C68.9443 20.0195 68.6045 20.0957 68.3232 20.248C68.0479 20.4004 67.8223 20.6084 67.6465 20.8721C67.4707 21.1357 67.3418 21.4404 67.2598 21.7861C67.1777 22.1318 67.1367 22.501 67.1367 22.8936ZM73.0342 22.3311L72.041 22.5508C72.041 21.9766 72.1201 21.4346 72.2783 20.9248C72.4424 20.4092 72.6797 19.958 72.9902 19.5713C73.3066 19.1787 73.6963 18.8711 74.1592 18.6484C74.6221 18.4258 75.1523 18.3145 75.75 18.3145C76.2363 18.3145 76.6699 18.3818 77.0508 18.5166C77.4375 18.6455 77.7656 18.8506 78.0352 19.1318C78.3047 19.4131 78.5098 19.7793 78.6504 20.2305C78.791 20.6758 78.8613 21.2148 78.8613 21.8477V28H76.7344V21.8389C76.7344 21.3584 76.6641 20.9863 76.5234 20.7227C76.3887 20.459 76.1953 20.2773 75.9434 20.1777C75.6914 20.0723 75.3896 20.0195 75.0381 20.0195C74.71 20.0195 74.4199 20.0811 74.168 20.2041C73.9219 20.3213 73.7139 20.4883 73.5439 20.7051C73.374 20.916 73.2451 21.1592 73.1572 21.4346C73.0752 21.71 73.0342 22.0088 73.0342 22.3311ZM85.2334 28.1758C84.5303 28.1758 83.8945 28.0615 83.3262 27.833C82.7637 27.5986 82.2832 27.2734 81.8848 26.8574C81.4922 26.4414 81.1904 25.9521 80.9795 25.3896C80.7686 24.8271 80.6631 24.2207 80.6631 23.5703V23.2188C80.6631 22.4746 80.7715 21.8008 80.9883 21.1973C81.2051 20.5938 81.5068 20.0781 81.8936 19.6504C82.2803 19.2168 82.7373 18.8857 83.2646 18.6572C83.792 18.4287 84.3633 18.3145 84.9785 18.3145C85.6582 18.3145 86.2529 18.4287 86.7627 18.6572C87.2725 18.8857 87.6943 19.208 88.0283 19.624C88.3682 20.0342 88.6201 20.5234 88.7842 21.0918C88.9541 21.6602 89.0391 22.2871 89.0391 22.9727V23.8779H81.6914V22.3574H86.9473V22.1904C86.9355 21.8096 86.8594 21.4521 86.7188 21.1182C86.584 20.7842 86.376 20.5146 86.0947 20.3096C85.8135 20.1045 85.4385 20.002 84.9697 20.002C84.6182 20.002 84.3047 20.0781 84.0293 20.2305C83.7598 20.377 83.5342 20.5908 83.3525 20.8721C83.1709 21.1533 83.0303 21.4932 82.9307 21.8916C82.8369 22.2842 82.79 22.7266 82.79 23.2188V23.5703C82.79 23.9863 82.8457 24.373 82.957 24.7305C83.0742 25.082 83.2441 25.3896 83.4668 25.6533C83.6895 25.917 83.959 26.125 84.2754 26.2773C84.5918 26.4238 84.9521 26.4971 85.3564 26.4971C85.8662 26.4971 86.3203 26.3945 86.7188 26.1895C87.1172 25.9844 87.4629 25.6943 87.7559 25.3193L88.8721 26.4004C88.667 26.6992 88.4004 26.9863 88.0723 27.2617C87.7441 27.5312 87.3428 27.751 86.8682 27.9209C86.3994 28.0908 85.8545 28.1758 85.2334 28.1758Z" fill="#25282B"/>
</svg>
